<svg width="24" height="24" viewBox="0 0 24 24" fill="none" xmlns="http://www.w3.org/2000/svg">
<g id="299092_calendar_icon 1">
<g id="Group">
<path id="Vector" d="M5 4C3.8954 4 3 4.9 3 6V20C3 21.1 3.8954 22 5 22H11H13H19C20.105 22 21 21.1 21 20V6C21 4.9 20.105 4 19 4H13H11H5Z" fill="#BDC3C7"/>
<path id="Vector_2" d="M5 3C3.8954 3 3 3.8954 3 5V19C3 20.105 3.8954 21 5 21H11H13H19C20.105 21 21 20.105 21 19V5C21 3.8954 20.105 3 19 3H13H11H5Z" fill="#ECF0F1"/>
<path id="Vector_3" d="M5 3C3.8954 3 3 3.8954 3 5V8V9H21V8V5C21 3.8954 20.105 3 19 3H13H11H5Z" fill="#E74C3C"/>
<path id="Vector_4" d="M7.5 5.5C7.5 5.69698 7.4612 5.89204 7.38582 6.07403C7.31044 6.25601 7.19995 6.42137 7.06066 6.56066C6.92137 6.69995 6.75601 6.81044 6.57403 6.88582C6.39204 6.9612 6.19698 7 6 7C5.80302 7 5.60796 6.9612 5.42597 6.88582C5.24399 6.81044 5.07863 6.69995 4.93934 6.56066C4.80005 6.42137 4.68956 6.25601 4.61418 6.07403C4.5388 5.89204 4.5 5.69698 4.5 5.5C4.5 5.30302 4.5388 5.10796 4.61418 4.92597C4.68956 4.74399 4.80005 4.57863 4.93934 4.43934C5.07863 4.30005 5.24399 4.18956 5.42597 4.11418C5.60796 4.0388 5.80302 4 6 4C6.19698 4 6.39204 4.0388 6.57403 4.11418C6.75601 4.18956 6.92137 4.30005 7.06066 4.43934C7.19995 4.57863 7.31044 4.74399 7.38582 4.92597C7.4612 5.10796 7.5 5.30302 7.5 5.5Z" fill="#C0392B"/>
<path id="Vector_5" d="M6 1C5.4477 1 5 1.4477 5 2V5C5 5.5523 5.4477 6 6 6C6.5523 6 7 5.5523 7 5V2C7 1.4477 6.5523 1 6 1Z" fill="#BDC3C7"/>
<path id="Vector_6" d="M19.5 5.5C19.5 5.69698 19.4612 5.89204 19.3858 6.07403C19.3104 6.25601 19.1999 6.42137 19.0607 6.56066C18.9214 6.69995 18.756 6.81044 18.574 6.88582C18.392 6.9612 18.197 7 18 7C17.803 7 17.608 6.9612 17.426 6.88582C17.244 6.81044 17.0786 6.69995 16.9393 6.56066C16.8001 6.42137 16.6896 6.25601 16.6142 6.07403C16.5388 5.89204 16.5 5.69698 16.5 5.5C16.5 5.30302 16.5388 5.10796 16.6142 4.92597C16.6896 4.74399 16.8001 4.57863 16.9393 4.43934C17.0786 4.30005 17.244 4.18956 17.426 4.11418C17.608 4.0388 17.803 4 18 4C18.197 4 18.392 4.0388 18.574 4.11418C18.756 4.18956 18.9214 4.30005 19.0607 4.43934C19.1999 4.57863 19.3104 4.74399 19.3858 4.92597C19.4612 5.10796 19.5 5.30302 19.5 5.5Z" fill="#C0392B"/>
<g id="Group_2">
<path id="Vector_7" d="M18 1C17.448 1 17 1.4 17 2V5C17 5.5 17.448 6 18 6C18.552 6 19 5.5 19 5V2C19 1.4 18.552 1 18 1Z" fill="#BDC3C7"/>
<path id="Vector_8" d="M5 11V13H7V11H5ZM8 11V13H10V11H8ZM11 11V13H13V11H11ZM14 11V13H16V11H14ZM17 11V13H19V11H17Z" fill="#BDC3C7"/>
<path id="Vector_9" d="M5 14V16H7V14H5ZM8 14V16H10V14H8ZM11 14V16H13V14H11ZM14 14V16H16V14H14ZM17 14V16H19V14H17Z" fill="#BDC3C7"/>
<path id="Vector_10" d="M5 17V19H7V17H5ZM8 17V19H10V17H8ZM11 17V19H13V17H11ZM14 17V19H16V17H14ZM17 17V19H19V17H17Z" fill="#BDC3C7"/>
</g>
</g>
</g>
</svg>
