<svg width="24" height="22" viewBox="0 0 24 22" fill="none" xmlns="http://www.w3.org/2000/svg">
<g id="Group">
<g id="Group_2">
<g id="Group_3">
<path id="Vector" d="M1.37891 16.0728V20.8856C1.37891 21.1667 1.60679 21.3945 1.88786 21.3945H11.1087C11.0289 21.2243 10.984 21.0346 10.984 20.8345V16.0728H1.37891Z" fill="white"/>
<path id="Vector_2" d="M0.763425 15.2841H1.3788H10.9839V14.8455V14.2241C10.9839 14.2183 10.984 14.2125 10.9841 14.2067C10.9868 13.8194 11.0808 13.4534 11.2456 13.1293C11.3168 12.9895 11.401 12.8573 11.4969 12.7347C11.6108 12.5889 11.7411 12.4565 11.8848 12.3401C12.3011 12.003 12.831 11.8007 13.4072 11.8007H13.9812V10.6985C13.9812 9.86265 13.3036 9.18506 12.4678 9.18506H11.0985C10.8312 9.18506 10.599 9.36902 10.5379 9.62924L9.90137 12.3401L9.80869 12.7348L9.74308 13.0141C9.73392 13.0532 9.72311 13.0917 9.71074 13.1293H9.28872C9.28406 12.9973 9.27063 12.8655 9.24859 12.7347C9.24482 12.712 9.2408 12.6895 9.23648 12.6669L9.15184 12.3401L8.6538 10.4178L9.0513 9.54051C9.12675 9.37396 9.00498 9.18506 8.82211 9.18506H7.96899C7.78612 9.18506 7.66433 9.37396 7.73981 9.54051L8.1373 10.4178L7.62038 12.3401L7.54185 12.6322C7.53503 12.6663 7.52897 12.7005 7.52332 12.7347C7.50175 12.8655 7.48872 12.9973 7.48447 13.1293H7.08036C7.06804 13.0917 7.05723 13.0532 7.04802 13.0141L6.98241 12.7348L6.88976 12.3401L6.25324 9.62932C6.19214 9.36907 5.95998 9.18513 5.69266 9.18513H4.32338C3.48753 9.18513 2.80994 9.86273 2.80994 10.6986V12.3403V12.7349V13.1294H0.763425C0.341811 13.1294 0 13.4712 0 13.8929V14.5208C0 14.9423 0.341811 15.2841 0.763425 15.2841Z" fill="white"/>
<path id="Vector_3" d="M8.39571 8.36696C10.2716 8.36696 11.7924 6.84621 11.7924 4.9703V1.35999C11.7924 0.891982 11.3709 0.536836 10.9097 0.61608C9.91021 0.787774 7.63106 1.2426 6.21297 1.52873C5.50675 1.67121 4.99902 2.2918 4.99902 3.01224V4.97033C4.99905 6.84624 6.51979 8.36696 8.39571 8.36696Z" fill="white"/>
<path id="Vector_4" d="M13.4071 12.564C13.1439 12.564 12.8951 12.6255 12.6739 12.7345C12.4774 12.8315 12.303 12.9662 12.1599 13.1291C11.9067 13.4173 11.7518 13.7938 11.7475 14.2065C11.7475 14.2123 11.7471 14.2181 11.7471 14.2239V14.8453V15.2839V15.6784V16.073V20.8348C11.7471 21.1441 11.9978 21.3948 12.307 21.3948H20.8087H23.4399C23.7491 21.3948 23.9999 21.1441 23.9999 20.8348V14.2239C23.9999 13.4207 23.4293 12.7507 22.6713 12.5971C22.5642 12.5754 22.4534 12.564 22.3399 12.564H13.9811H13.4071Z" fill="white"/>
<path id="Vector_5" d="M17.874 11.6668C19.9315 11.6668 21.5995 9.99883 21.5995 7.94129V5.79363C21.5995 5.00343 21.0425 4.32276 20.268 4.16649C18.7126 3.85267 16.2128 3.35382 15.1166 3.16548C15.0688 3.15726 15.0213 3.15332 14.9747 3.15332C14.5275 3.15332 14.1484 3.51661 14.1484 3.98143V7.94129C14.1485 9.99883 15.8164 11.6668 17.874 11.6668Z" fill="white"/>
</g>
</g>
</g>
</svg>
