<svg width="60" height="60" viewBox="0 0 60 60" fill="none" xmlns="http://www.w3.org/2000/svg">
<g id="bell icon">
<path id="Vector" d="M30 55C31.5482 55.0019 33.0586 54.5215 34.3212 53.6254C35.5838 52.7293 36.5358 51.4621 37.045 50H22.955C23.4642 51.4621 24.4162 52.7293 25.6788 53.6254C26.9414 54.5215 28.4518 55.0019 30 55ZM47.5 36.465V25C47.5 16.9575 42.0375 10.1825 34.6375 8.145C33.905 6.3 32.115 5 30 5C27.885 5 26.095 6.3 25.3625 8.145C17.9625 10.185 12.5 16.9575 12.5 25V36.465L8.2325 40.7325C7.76363 41.2012 7.50014 41.837 7.5 42.5V45C7.5 45.663 7.76339 46.2989 8.23223 46.7678C8.70107 47.2366 9.33696 47.5 10 47.5H50C50.663 47.5 51.2989 47.2366 51.7678 46.7678C52.2366 46.2989 52.5 45.663 52.5 45V42.5C52.4999 41.837 52.2364 41.2012 51.7675 40.7325L47.5 36.465Z" fill="#054BB4"/>
</g>
</svg>
