<svg width="14" height="15" viewBox="0 0 14 15" fill="none" xmlns="http://www.w3.org/2000/svg">
<g id="calendar-line-icon 1" clip-path="url(#clip0_2340_61)">
<g id="Group">
<path id="Vector" d="M9.29801 1.0389C9.29801 0.741536 9.59196 0.5 9.9554 0.5C10.3188 0.5 10.6128 0.741536 10.6128 1.0389V3.39958C10.6128 3.69694 10.3188 3.93848 9.9554 3.93848C9.59196 3.93848 9.29801 3.69694 9.29801 3.39958V1.0389ZM7.53206 12.3273C7.49333 12.3273 7.46257 12.1644 7.46257 11.9627C7.46257 11.7611 7.49333 11.5981 7.53206 11.5981H9.33106C9.36979 11.5981 9.40055 11.7611 9.40055 11.9627C9.40055 12.1644 9.36979 12.3273 9.33106 12.3273H7.53206ZM1.80583 8.14372C1.76709 8.14372 1.73633 7.98079 1.73633 7.77913C1.73633 7.57747 1.76709 7.41455 1.80583 7.41455H3.60482C3.64355 7.41455 3.67432 7.57747 3.67432 7.77913C3.67432 7.98079 3.64355 8.14372 3.60482 8.14372H1.80583ZM4.66895 8.14372C4.63021 8.14372 4.59945 7.98079 4.59945 7.77913C4.59945 7.57747 4.63021 7.41455 4.66895 7.41455H6.46794C6.50667 7.41455 6.53744 7.57747 6.53744 7.77913C6.53744 7.98079 6.50667 8.14372 6.46794 8.14372H4.66895ZM7.53206 8.14372C7.49333 8.14372 7.46257 7.98079 7.46257 7.77913C7.46257 7.57747 7.49333 7.41455 7.53206 7.41455H9.33106C9.36979 7.41455 9.40055 7.57747 9.40055 7.77913C9.40055 7.98079 9.36979 8.14372 9.33106 8.14372H7.53206ZM10.3963 8.14372C10.3576 8.14372 10.3268 7.98079 10.3268 7.77913C10.3268 7.57747 10.3576 7.41455 10.3963 7.41455H12.1953C12.234 7.41455 12.2648 7.57747 12.2648 7.77913C12.2648 7.98079 12.234 8.14372 12.1953 8.14372H10.3963ZM1.80583 10.2355C1.76709 10.2355 1.73633 10.0726 1.73633 9.87093C1.73633 9.66927 1.76709 9.50635 1.80583 9.50635H3.60482C3.64355 9.50635 3.67432 9.66927 3.67432 9.87093C3.67432 10.0726 3.64355 10.2355 3.60482 10.2355H1.80583ZM4.66895 10.2355C4.63021 10.2355 4.59945 10.0726 4.59945 9.87093C4.59945 9.66927 4.63021 9.50635 4.66895 9.50635H6.46794C6.50667 9.50635 6.53744 9.66927 6.53744 9.87093C6.53744 10.0726 6.50667 10.2355 6.46794 10.2355H4.66895ZM7.53206 10.2355C7.49333 10.2355 7.46257 10.0726 7.46257 9.87093C7.46257 9.66927 7.49333 9.50635 7.53206 9.50635H9.33106C9.36979 9.50635 9.40055 9.66927 9.40055 9.87093C9.40055 10.0726 9.36979 10.2355 9.33106 10.2355H7.53206ZM10.3963 10.2355C10.3576 10.2355 10.3268 10.0726 10.3268 9.87093C10.3268 9.66927 10.3576 9.50635 10.3963 9.50635H12.1953C12.234 9.50635 12.2648 9.66927 12.2648 9.87093C12.2648 10.0726 12.234 10.2355 12.1953 10.2355H10.3963ZM1.80583 12.3273C1.76709 12.3273 1.73633 12.1644 1.73633 11.9627C1.73633 11.7611 1.76709 11.5981 1.80583 11.5981H3.60482C3.64355 11.5981 3.67432 11.7611 3.67432 11.9627C3.67432 12.1644 3.64355 12.3273 3.60482 12.3273H1.80583ZM4.66895 12.3273C4.63021 12.3273 4.59945 12.1644 4.59945 11.9627C4.59945 11.7611 4.63021 11.5981 4.66895 11.5981H6.46794C6.50667 11.5981 6.53744 11.7611 6.53744 11.9627C6.53744 12.1644 6.50667 12.3273 6.46794 12.3273H4.66895ZM3.37354 1.0389C3.37354 0.741536 3.66748 0.5 4.03092 0.5C4.39437 0.5 4.68831 0.741536 4.68831 1.0389V3.39958C4.68831 3.69694 4.39437 3.93848 4.03092 3.93848C3.66748 3.93848 3.37354 3.69694 3.37354 3.39958V1.0389ZM0.729167 5.66341H13.2697V2.94613C13.2697 2.85498 13.2321 2.77181 13.1717 2.71029C13.1113 2.6499 13.0282 2.6123 12.9359 2.6123H11.735C11.5334 2.6123 11.3704 2.44938 11.3704 2.24772C11.3704 2.04606 11.5334 1.88314 11.735 1.88314H12.937C13.2298 1.88314 13.4953 2.00277 13.6878 2.19531C13.8804 2.38786 14 2.65332 14 2.94613V6.02913V13.4382C14 13.731 13.8804 13.9964 13.6878 14.189C13.4953 14.3815 13.2298 14.5011 12.937 14.5011H1.06299C0.770182 14.5011 0.50472 14.3815 0.312174 14.189C0.119629 13.9953 0 13.7298 0 13.437V6.028V2.94613C0 2.65332 0.119629 2.38786 0.312174 2.19531C0.50472 2.00277 0.770182 1.88314 1.06299 1.88314H2.34701C2.54867 1.88314 2.71159 2.04606 2.71159 2.24772C2.71159 2.44938 2.54867 2.6123 2.34701 2.6123H1.06299C0.971842 2.6123 0.888672 2.6499 0.827148 2.71029C0.766764 2.77067 0.729167 2.85384 0.729167 2.94613V5.66341ZM13.2708 6.39372H0.729167V13.437C0.729167 13.5282 0.766764 13.6113 0.827148 13.6729C0.887533 13.7332 0.970703 13.7708 1.06299 13.7708H12.937C13.0282 13.7708 13.1113 13.7332 13.1729 13.6729C13.2332 13.6125 13.2708 13.5293 13.2708 13.437V6.39372ZM5.74561 2.6123C5.54395 2.6123 5.38102 2.44938 5.38102 2.24772C5.38102 2.04606 5.54395 1.88314 5.74561 1.88314H8.19401C8.39567 1.88314 8.55859 2.04606 8.55859 2.24772C8.55859 2.44938 8.39567 2.6123 8.19401 2.6123H5.74561Z" fill="#5A5C5F"/>
</g>
</g>
<defs>
<clipPath id="clip0_2340_61">
<rect width="14" height="14" fill="white" transform="translate(0 0.5)"/>
</clipPath>
</defs>
</svg>
