<svg width="54" height="50" viewBox="0 0 54 50" fill="none" xmlns="http://www.w3.org/2000/svg">
<path id="Vector" d="M48.3073 49.6901H5.76726C4.02726 49.6901 2.40727 48.7301 1.32727 46.9901C0.487266 45.6101 0.487266 43.5701 1.32727 41.8301L3.72727 36.9101C5.40727 33.5501 9.54726 31.4501 12.6673 31.2101C13.6873 31.1501 15.7273 30.7301 17.7673 30.2501C19.2673 29.8901 20.1073 29.6501 20.5873 29.4701C20.4673 29.0501 20.2273 28.5701 19.9273 28.1501C16.3273 25.3301 14.1673 20.5901 14.1673 15.4901C14.1673 7.09006 19.9273 0.310059 27.0673 0.310059C34.2073 0.310059 39.9673 7.15006 39.9673 15.4901C39.9673 20.5901 37.8073 25.3301 34.2073 28.1501C33.9073 28.5701 33.6673 28.9901 33.5473 29.4101C34.0273 29.5901 34.8673 29.8301 36.3073 30.1901C38.1073 30.6101 40.2673 30.9701 41.3473 31.0901C44.5273 31.3901 48.6073 33.3701 50.2873 36.7301L52.6273 41.4701C53.5273 43.2701 53.5273 45.5501 52.6273 46.9301C51.6673 48.6701 49.9873 49.6901 48.3073 49.6901ZM27.0673 2.77006C21.2473 2.77006 16.5673 8.53006 16.5673 15.5501C16.5673 19.9901 18.4273 24.0101 21.4873 26.4101C21.5473 26.4701 21.6673 26.5301 21.7273 26.6501C22.5673 27.7301 23.0473 28.9301 23.0473 30.1901C23.0473 30.5501 22.9273 30.9101 22.6273 31.1501C22.3873 31.3301 21.7873 31.8701 18.3073 32.7101C16.6873 33.0701 14.2273 33.5501 12.8473 33.6701C10.3873 33.9101 7.08727 35.5901 5.88727 38.0501L3.54726 42.9701C3.06726 43.9901 3.00727 45.1901 3.42727 45.8501C3.90727 46.6301 4.80726 47.4101 5.82726 47.4101H48.3673C49.3873 47.4101 50.2873 46.6301 50.7673 45.8501C51.1273 45.2501 51.1873 43.8101 50.6473 42.7301L48.3073 37.9901C47.1073 35.5901 43.8073 33.9101 41.3473 33.6701C40.1473 33.5501 37.8673 33.1901 35.9473 32.7101C32.4673 31.8701 31.8673 31.3301 31.6273 31.2101C31.3873 30.9701 31.2073 30.6101 31.2073 30.2501C31.2073 28.9901 31.6873 27.7901 32.5273 26.7101C32.5873 26.6501 32.6473 26.5301 32.7673 26.4701C35.8273 24.1301 37.6873 20.0501 37.6873 15.6701C37.5673 8.53006 32.8873 2.77006 27.0673 2.77006Z" fill="#282828"/>
</svg>
