<svg width="50" height="50" viewBox="0 0 50 50" fill="none" xmlns="http://www.w3.org/2000/svg">
<path id="Vector" d="M44.3981 9.255C44.3083 9.14172 44.2145 9.02844 44.1169 8.91516C41.8146 6.16907 38.9471 3.9519 35.71 2.4149C32.4728 0.877897 28.9422 0.0572389 25.3591 0.00891113C25.238 0.00500488 25.1208 0.00109863 24.9997 0.00109863C24.8786 0.00109863 24.7614 0.00500488 24.6403 0.00891113C21.0437 0.0577094 17.5002 0.884614 14.2535 2.4328C11.0068 3.98099 8.13369 6.21375 5.83173 8.97766C5.76614 9.04814 5.70483 9.12249 5.64814 9.20032C5.64522 9.2062 5.64125 9.21149 5.63642 9.21594C1.9915 13.6691 0 19.2464 0 25.0011C0 30.7558 1.9915 36.3331 5.63642 40.7863C5.64125 40.7907 5.64522 40.796 5.64814 40.8019C5.70484 40.8797 5.76615 40.954 5.83173 41.0245L5.83564 41.0284C8.13732 43.7914 11.0099 46.0233 14.2559 47.5708C17.502 49.1183 21.0446 49.9447 24.6403 49.9933C24.8802 50.0011 25.1192 50.0011 25.3591 49.9933C28.9422 49.945 32.4728 49.1243 35.71 47.5873C38.9471 46.0503 41.8146 43.8331 44.1169 41.087C44.2145 40.9738 44.3083 40.8605 44.3981 40.7472C48.0213 36.2993 49.9997 30.7379 49.9997 25.0011C49.9997 19.2643 48.0213 13.7029 44.3981 9.255ZM38.863 24.3175C38.8243 20.6132 38.2896 16.9307 37.2731 13.3683C39.4984 12.666 41.624 11.68 43.5974 10.4347C46.7198 14.4025 48.4812 19.2704 48.6208 24.3175H38.863ZM25.6833 1.40344C29.8591 1.83313 33.4919 6.14563 35.5895 12.4581C32.3605 13.3444 29.0315 13.8143 25.6833 13.8566V1.40344ZM24.3161 13.8566C20.9679 13.8143 17.6389 13.3444 14.4099 12.4581C16.5075 6.14563 20.1403 1.83313 24.3161 1.40344V13.8566ZM24.3161 15.2238V24.3175H12.5036C12.5409 20.7486 13.0465 17.2001 14.0075 13.7628C17.367 14.6893 20.8315 15.1803 24.3161 15.2238ZM24.3161 25.6847V34.7784C20.8315 34.822 17.367 35.313 14.0075 36.2394C13.0465 32.8021 12.5409 29.2536 12.5036 25.6847H24.3161ZM24.3161 36.1456V48.5988C20.1403 48.1691 16.5075 43.8566 14.4099 37.5441C17.6389 36.6578 20.9679 36.1879 24.3161 36.1456ZM25.6833 36.1456C29.0315 36.1879 32.3605 36.6578 35.5895 37.5441C33.4919 43.8566 29.8591 48.1691 25.6833 48.5988V36.1456ZM25.6833 34.7784V25.6847H37.4958C37.4585 29.2549 36.9529 32.8047 35.9919 36.2433C32.6333 35.312 29.1683 34.8196 25.6833 34.7784ZM25.6833 24.3175V15.2238C29.1683 15.1826 32.6333 14.6902 35.9919 13.7589C36.9529 17.1975 37.4585 20.7473 37.4958 24.3175H25.6833ZM42.7145 9.37219C40.8843 10.5125 38.9185 11.4193 36.863 12.0714C35.363 7.61047 33.1091 4.0636 30.4255 1.99719C35.1855 3.1266 39.4787 5.70305 42.7145 9.37219ZM19.5739 1.99719C16.8903 4.0636 14.6364 7.61047 13.1364 12.0714C11.0824 11.4173 9.11699 10.512 7.28486 9.3761C10.5187 5.70378 14.8126 3.12557 19.5739 1.99719ZM6.40205 10.4308C8.3751 11.6787 10.5007 12.6673 12.7263 13.3722C11.7096 16.9332 11.1748 20.6144 11.1364 24.3175H1.37861C1.51817 19.2692 3.27957 14.4 6.40205 10.4308ZM11.1364 25.6847C11.1748 29.3878 11.7096 33.069 12.7263 36.63V36.6339C10.5002 37.3359 8.37442 38.3232 6.40205 39.5714C3.27957 35.6022 1.51817 30.733 1.37861 25.6847H11.1364ZM7.28486 40.6261C9.11699 39.4902 11.0824 38.5849 13.1364 37.9308C14.6364 42.3917 16.8903 45.9386 19.5739 48.005C14.8126 46.8766 10.5187 44.2984 7.28486 40.6261ZM30.4255 48.005C33.1091 45.9386 35.363 42.3917 36.863 37.9308C38.9185 38.5829 40.8843 39.4897 42.7145 40.63C39.4787 44.2991 35.1855 46.8756 30.4255 48.005ZM43.5974 39.5675C41.624 38.3222 39.4984 37.3362 37.2731 36.6339C38.2896 33.0715 38.8243 29.389 38.863 25.6847H48.6208C48.4812 30.7318 46.7198 35.5997 43.5974 39.5675Z" fill="black"/>
</svg>
