<svg width="24" height="24" viewBox="0 0 24 24" fill="none" xmlns="http://www.w3.org/2000/svg">
<g id="dashboard icon">
<path id="Vector" d="M10.9949 4.68V8.56C10.9949 8.88127 10.9315 9.19938 10.8082 9.49606C10.685 9.79275 10.5044 10.0622 10.2767 10.2889C10.0491 10.5156 9.77894 10.6951 9.48175 10.8171C9.18456 10.9392 8.8662 11.0013 8.54494 11H4.68494C4.36454 11.0019 4.04704 10.9392 3.75149 10.8155C3.45594 10.6917 3.1884 10.5096 2.96494 10.28C2.73805 10.055 2.55838 9.78697 2.43646 9.49161C2.31454 9.19625 2.25282 8.87952 2.25494 8.56V4.69C2.25493 4.0446 2.51063 3.42549 2.96606 2.96819C3.42148 2.51088 4.03954 2.25265 4.68494 2.25H8.55494C8.875 2.25031 9.19182 2.3141 9.48706 2.43769C9.7823 2.56128 10.0501 2.74221 10.2749 2.97C10.5024 3.19298 10.6832 3.45902 10.8069 3.75261C10.9305 4.04619 10.9944 4.36145 10.9949 4.68ZM21.7449 4.69V8.56C21.7397 9.2038 21.4824 9.81991 21.0281 10.2761C20.5738 10.7323 19.9587 10.9922 19.3149 11H15.4349C14.7881 10.996 14.168 10.7416 13.7049 10.29C13.4786 10.0625 13.2995 9.79258 13.1776 9.49572C13.0558 9.19886 12.9937 8.88088 12.9949 8.56V4.69C12.9941 4.36977 13.0574 4.05261 13.1811 3.75722C13.3047 3.46182 13.4862 3.19416 13.7149 2.97C13.9398 2.74221 14.2076 2.56128 14.5028 2.43769C14.798 2.3141 15.1149 2.25031 15.4349 2.25H19.3049C19.9504 2.25523 20.568 2.51398 21.0245 2.97044C21.481 3.4269 21.7397 4.04449 21.7449 4.69ZM21.7449 15.44V19.31C21.7397 19.9538 21.4824 20.5699 21.0281 21.0261C20.5738 21.4823 19.9587 21.7422 19.3149 21.75H15.4349C14.784 21.7566 14.1562 21.5091 13.6849 21.06C13.4578 20.8331 13.278 20.5634 13.1561 20.2664C13.0342 19.9693 12.9726 19.651 12.9749 19.33V15.46C12.9741 15.1398 13.0374 14.8226 13.1611 14.5272C13.2847 14.2318 13.4662 13.9642 13.6949 13.74C13.9198 13.5122 14.1876 13.3313 14.4828 13.2077C14.778 13.0841 15.0949 13.0203 15.4149 13.02H19.2849C19.9304 13.0252 20.548 13.284 21.0045 13.7404C21.461 14.1969 21.7197 14.8145 21.7249 15.46L21.7449 15.44ZM10.9949 15.45V19.32C10.9871 19.9655 10.7258 20.582 10.2675 21.0366C9.80912 21.4912 9.19047 21.7474 8.54494 21.75H4.68494C4.36545 21.7513 4.04887 21.6894 3.75345 21.5677C3.45803 21.4461 3.18963 21.2671 2.96372 21.0412C2.73781 20.8153 2.55886 20.5469 2.43721 20.2515C2.31556 19.9561 2.25361 19.6395 2.25494 19.32V15.45C2.25751 14.8045 2.51373 14.1858 2.96832 13.7275C3.42291 13.2691 4.03944 13.0079 4.68494 13H8.55494C9.20314 13.0066 9.82342 13.2648 10.2849 13.72C10.741 14.1801 10.9963 14.8021 10.9949 15.45Z" fill="white"/>
</g>
</svg>
