<svg width="44" height="50" viewBox="0 0 44 50" fill="none" xmlns="http://www.w3.org/2000/svg">
<path id="Vector" d="M43.2384 5.17325C43.089 5.013 42.88 4.92198 42.661 4.92198H37.0951C37.1018 4.70274 37.1069 4.48292 37.1105 4.26261C38.1668 4.13253 38.9878 3.23126 38.9878 2.14014C38.9878 0.960061 38.0278 0 36.8479 0H7.15249C5.97241 0 5.01225 0.960061 5.01225 2.14024C5.01225 3.23116 5.83334 4.13243 6.8896 4.26261C6.89321 4.48292 6.89829 4.70274 6.90493 4.92198H1.33919C1.12015 4.92198 0.911068 5.0129 0.761751 5.17325C0.612337 5.33331 0.536263 5.54855 0.55179 5.767C1.01185 12.2972 3.42885 18.3561 7.35717 22.8273C10.8211 26.7701 15.1978 29.1736 19.8598 29.739V40.3413H17.3318C16.3347 40.3413 15.5237 41.1523 15.5237 42.1493V43.0428H15.2323C13.9828 43.0428 12.9663 44.0593 12.9663 45.3088V47.7342C12.9663 48.9837 13.9828 50.0002 15.2323 50.0002H28.7675C30.017 50.0002 31.0335 48.9837 31.0335 47.7342V45.3088C31.0335 44.0593 30.017 43.0428 28.7675 43.0428H28.4761V42.1493C28.4761 41.1523 27.6649 40.3413 26.6679 40.3413H24.1399V29.7389C28.8019 29.1736 33.1786 26.77 36.6426 22.8272C40.5709 18.3559 42.9878 12.2972 43.448 5.76691C43.4637 5.54845 43.3877 5.33341 43.2384 5.17325ZM6.59125 2.14024C6.59125 1.83077 6.84301 1.57901 7.15249 1.57901H36.8477C37.1569 1.57901 37.4087 1.83077 37.4087 2.14024C37.4087 2.44971 37.1569 2.70147 36.8477 2.70147H33.644C33.208 2.70147 32.8546 3.05479 32.8546 3.49093C32.8546 3.92706 33.2081 4.28038 33.644 4.28038H35.5306C35.5227 4.74415 35.5075 5.20558 35.4856 5.66446C35.4855 5.66749 35.4849 5.67032 35.4848 5.67345C34.9085 17.645 29.5981 27.1665 23.158 28.1963C23.0783 28.2089 22.9985 28.2212 22.9188 28.2314C22.9062 28.233 22.8934 28.2341 22.8807 28.2356C22.7905 28.2465 22.7005 28.2563 22.6106 28.264C22.5925 28.2656 22.5741 28.2664 22.5557 28.2677C22.4727 28.2742 22.3897 28.2799 22.3073 28.2836C22.205 28.2879 22.1024 28.2905 21.9997 28.2905C21.8969 28.2905 21.7944 28.2879 21.6921 28.2836C21.6095 28.28 21.5264 28.2743 21.4433 28.2677C21.4253 28.2664 21.4069 28.2656 21.3888 28.264C21.2989 28.2563 21.2089 28.2465 21.1185 28.2356C21.1059 28.234 21.0932 28.233 21.0806 28.2314C21.001 28.2213 20.9212 28.2089 20.8415 28.1963C14.4013 27.1665 9.09107 17.6451 8.5147 5.67345C8.5146 5.67052 8.51411 5.66759 8.51382 5.66456C8.49204 5.20558 8.47681 4.74415 8.4689 4.28028H30.9648C31.4009 4.28028 31.7543 3.92696 31.7543 3.49083C31.7543 3.05469 31.4008 2.70137 30.9648 2.70137H7.15249C6.84301 2.70147 6.59125 2.44981 6.59125 2.14024ZM2.19818 6.50099H6.97973C7.34956 12.2645 8.77837 17.6131 11.0974 21.82C11.1132 21.8487 11.1288 21.8779 11.1447 21.9065C11.1565 21.9278 11.1679 21.9496 11.1798 21.9708C11.2232 22.0482 11.2674 22.1234 11.3112 22.1997C11.3386 22.2474 11.3658 22.2957 11.3935 22.3431C11.452 22.4436 11.5112 22.5426 11.5705 22.6413C11.5852 22.6657 11.5995 22.6908 11.6143 22.7152C11.621 22.7261 11.6279 22.7366 11.6345 22.7475C12.5074 24.1819 13.4631 25.4149 14.4844 26.4315C7.97182 23.085 3.09105 15.5477 2.19818 6.50099ZM29.4547 45.3087V47.7341C29.4547 48.113 29.1465 48.4211 28.7677 48.4211H15.2324C14.8535 48.4211 14.5454 48.1129 14.5454 47.7341V45.3087C14.5454 44.9298 14.8536 44.6217 15.2324 44.6217H16.3132H27.6868H28.7677C29.1466 44.6216 29.4547 44.9298 29.4547 45.3087ZM26.8973 42.1491V43.0426H17.1026V42.1491C17.1026 42.0228 17.2054 41.9201 17.3318 41.9201H20.6493H23.3508H26.6681C26.7945 41.9201 26.8973 42.0228 26.8973 42.1491ZM22.5613 40.3411H21.4387V29.8598C21.6173 29.8654 21.796 29.8687 21.9751 29.869C21.9917 29.869 22.0084 29.869 22.025 29.869C22.204 29.8688 22.3828 29.8655 22.5612 29.8598L22.5613 40.3411ZM29.5155 26.4312C30.5368 25.4145 31.4927 24.1815 32.3655 22.7469C32.3722 22.7361 32.379 22.7257 32.3855 22.7149C32.4002 22.6908 32.4144 22.666 32.429 22.6417C32.4885 22.5428 32.5478 22.4435 32.6065 22.3427C32.6339 22.2957 32.6608 22.248 32.6881 22.2007C32.7321 22.1241 32.7765 22.0485 32.8201 21.9707C32.832 21.9495 32.8435 21.9276 32.8554 21.9062C32.871 21.8781 32.8862 21.8495 32.9018 21.8213C35.2214 17.6143 36.6504 12.265 37.0203 6.50089H41.8019C40.909 15.5477 36.0281 23.085 29.5155 26.4312Z" fill="#231F20"/>
</svg>
