<svg width="412" height="181" viewBox="0 0 412 181" fill="none" xmlns="http://www.w3.org/2000/svg">
<rect y="63" width="126" height="39" rx="2" fill="#054BB4"/>
<path d="M13.2784 88V76.3636H17.5398C18.3655 76.3636 19.0492 76.5 19.5909 76.7727C20.1326 77.0417 20.5379 77.4072 20.8068 77.8693C21.0758 78.3277 21.2102 78.8447 21.2102 79.4205C21.2102 79.9053 21.1212 80.3144 20.9432 80.6477C20.7652 80.9773 20.5265 81.2424 20.2273 81.4432C19.9318 81.6402 19.6061 81.7841 19.25 81.875V81.9886C19.6364 82.0076 20.0133 82.1326 20.3807 82.3636C20.7519 82.5909 21.0587 82.9148 21.3011 83.3352C21.5436 83.7557 21.6648 84.267 21.6648 84.8693C21.6648 85.464 21.5246 85.9981 21.2443 86.4716C20.9678 86.9413 20.5398 87.3144 19.9602 87.5909C19.3807 87.8636 18.6402 88 17.7386 88H13.2784ZM15.0341 86.4943H17.5682C18.4091 86.4943 19.0114 86.3314 19.375 86.0057C19.7386 85.6799 19.9205 85.2727 19.9205 84.7841C19.9205 84.4167 19.8277 84.0795 19.642 83.7727C19.4564 83.4659 19.1913 83.2216 18.8466 83.0398C18.5057 82.858 18.1004 82.767 17.6307 82.767H15.0341V86.4943ZM15.0341 81.3977H17.3864C17.7803 81.3977 18.1345 81.322 18.4489 81.1705C18.767 81.0189 19.0189 80.8068 19.2045 80.5341C19.3939 80.2576 19.4886 79.9318 19.4886 79.5568C19.4886 79.0758 19.3201 78.6723 18.983 78.3466C18.6458 78.0208 18.1288 77.858 17.4318 77.858H15.0341V81.3977ZM26.1506 88.1932C25.5975 88.1932 25.0975 88.0909 24.6506 87.8864C24.2036 87.678 23.8494 87.3769 23.5881 86.983C23.3305 86.589 23.2017 86.1061 23.2017 85.5341C23.2017 85.0417 23.2964 84.6364 23.4858 84.3182C23.6752 84 23.9309 83.7481 24.2528 83.5625C24.5748 83.3769 24.9347 83.2367 25.3324 83.142C25.7301 83.0473 26.1354 82.9754 26.5483 82.9261C27.071 82.8655 27.4953 82.8163 27.821 82.7784C28.1468 82.7367 28.3835 82.6705 28.5312 82.5795C28.679 82.4886 28.7528 82.3409 28.7528 82.1364V82.0966C28.7528 81.6004 28.6127 81.2159 28.3324 80.9432C28.0559 80.6705 27.643 80.5341 27.0938 80.5341C26.5218 80.5341 26.071 80.661 25.7415 80.9148C25.4157 81.1648 25.1903 81.4432 25.0653 81.75L23.4688 81.3864C23.6581 80.8561 23.9347 80.428 24.2983 80.1023C24.6657 79.7727 25.0881 79.5341 25.5653 79.3864C26.0426 79.2348 26.5445 79.1591 27.071 79.1591C27.4195 79.1591 27.7888 79.2008 28.179 79.2841C28.5729 79.3636 28.9403 79.5114 29.2812 79.7273C29.6259 79.9432 29.9081 80.2519 30.1278 80.6534C30.3475 81.0511 30.4574 81.5682 30.4574 82.2045V88H28.7983V86.8068H28.7301C28.6203 87.0265 28.4555 87.2424 28.2358 87.4545C28.0161 87.6667 27.7339 87.8428 27.3892 87.983C27.0445 88.1231 26.6316 88.1932 26.1506 88.1932ZM26.5199 86.8295C26.9896 86.8295 27.3911 86.7367 27.7244 86.5511C28.0616 86.3655 28.3172 86.1231 28.4915 85.8239C28.6695 85.5208 28.7585 85.197 28.7585 84.8523V83.7273C28.6979 83.7879 28.5805 83.8447 28.4062 83.8977C28.2358 83.947 28.0407 83.9905 27.821 84.0284C27.6013 84.0625 27.3873 84.0947 27.179 84.125C26.9706 84.1515 26.7964 84.1742 26.6562 84.1932C26.3267 84.2348 26.0256 84.3049 25.7528 84.4034C25.4839 84.5019 25.268 84.6439 25.1051 84.8295C24.946 85.0114 24.8665 85.2538 24.8665 85.5568C24.8665 85.9773 25.0218 86.2955 25.3324 86.5114C25.643 86.7235 26.0388 86.8295 26.5199 86.8295ZM34.419 82.8182V88H32.7202V79.2727H34.3509V80.6932H34.4588C34.6596 80.2311 34.974 79.8598 35.402 79.5795C35.8338 79.2992 36.3774 79.1591 37.0327 79.1591C37.6274 79.1591 38.1482 79.2841 38.5952 79.5341C39.0421 79.7803 39.3887 80.1477 39.6349 80.6364C39.8812 81.125 40.0043 81.7292 40.0043 82.4489V88H38.3054V82.6534C38.3054 82.0208 38.1406 81.5265 37.8111 81.1705C37.4815 80.8106 37.0289 80.6307 36.4531 80.6307C36.0592 80.6307 35.7088 80.7159 35.402 80.8864C35.099 81.0568 34.8584 81.3068 34.6804 81.6364C34.5062 81.9621 34.419 82.3561 34.419 82.8182ZM43.8452 85.0398L43.8338 82.9659H44.1293L47.6065 79.2727H49.6406L45.6747 83.4773H45.4077L43.8452 85.0398ZM42.2827 88V76.3636H43.9815V88H42.2827ZM47.794 88L44.669 83.8523L45.8395 82.6648L49.8793 88H47.794ZM51.1889 88V79.2727H52.8878V88H51.1889ZM52.0469 77.9261C51.7514 77.9261 51.4976 77.8277 51.2855 77.6307C51.0772 77.4299 50.973 77.1913 50.973 76.9148C50.973 76.6345 51.0772 76.3958 51.2855 76.1989C51.4976 75.9981 51.7514 75.8977 52.0469 75.8977C52.3423 75.8977 52.5942 75.9981 52.8026 76.1989C53.0147 76.3958 53.1207 76.6345 53.1207 76.9148C53.1207 77.1913 53.0147 77.4299 52.8026 77.6307C52.5942 77.8277 52.3423 77.9261 52.0469 77.9261ZM56.8722 82.8182V88H55.1733V79.2727H56.804V80.6932H56.9119C57.1127 80.2311 57.4271 79.8598 57.8551 79.5795C58.2869 79.2992 58.8305 79.1591 59.4858 79.1591C60.0805 79.1591 60.6013 79.2841 61.0483 79.5341C61.4953 79.7803 61.8419 80.1477 62.0881 80.6364C62.3343 81.125 62.4574 81.7292 62.4574 82.4489V88H60.7585V82.6534C60.7585 82.0208 60.5938 81.5265 60.2642 81.1705C59.9347 80.8106 59.482 80.6307 58.9062 80.6307C58.5123 80.6307 58.1619 80.7159 57.8551 80.8864C57.5521 81.0568 57.3116 81.3068 57.1335 81.6364C56.9593 81.9621 56.8722 82.3561 56.8722 82.8182ZM68.3949 91.4545C67.7017 91.4545 67.1051 91.3636 66.6051 91.1818C66.1089 91 65.7036 90.7595 65.3892 90.4602C65.0748 90.161 64.84 89.8333 64.6847 89.4773L66.1449 88.875C66.2472 89.0417 66.3835 89.2178 66.554 89.4034C66.7282 89.5928 66.9631 89.7538 67.2585 89.8864C67.5578 90.0189 67.9422 90.0852 68.4119 90.0852C69.0559 90.0852 69.5881 89.928 70.0085 89.6136C70.429 89.303 70.6392 88.8068 70.6392 88.125V86.4091H70.5312C70.429 86.5947 70.2813 86.8011 70.0881 87.0284C69.8987 87.2557 69.6373 87.4527 69.304 87.6193C68.9706 87.786 68.5369 87.8693 68.0028 87.8693C67.3134 87.8693 66.6922 87.7083 66.1392 87.3864C65.59 87.0606 65.1544 86.5814 64.8324 85.9489C64.5142 85.3125 64.3551 84.5303 64.3551 83.6023C64.3551 82.6742 64.5123 81.8788 64.8267 81.2159C65.1449 80.553 65.5805 80.0455 66.1335 79.6932C66.6866 79.3371 67.3134 79.1591 68.0142 79.1591C68.5559 79.1591 68.9934 79.25 69.3267 79.4318C69.66 79.6098 69.9195 79.8182 70.1051 80.0568C70.2945 80.2955 70.4403 80.5057 70.5426 80.6875H70.6676V79.2727H72.3324V88.1932C72.3324 88.9432 72.1581 89.5587 71.8097 90.0398C71.4612 90.5208 70.9896 90.8769 70.3949 91.108C69.804 91.339 69.1373 91.4545 68.3949 91.4545ZM68.3778 86.4602C68.8665 86.4602 69.2794 86.3466 69.6165 86.1193C69.9574 85.8883 70.215 85.5587 70.3892 85.1307C70.5672 84.6989 70.6562 84.1818 70.6562 83.5795C70.6562 82.9924 70.5691 82.4754 70.3949 82.0284C70.2206 81.5814 69.965 81.233 69.6278 80.983C69.2907 80.7292 68.8741 80.6023 68.3778 80.6023C67.8665 80.6023 67.4403 80.7348 67.0994 81C66.7585 81.2614 66.5009 81.6174 66.3267 82.0682C66.1563 82.5189 66.071 83.0227 66.071 83.5795C66.071 84.1515 66.1581 84.6534 66.3324 85.0852C66.5066 85.517 66.7642 85.8542 67.1051 86.0966C67.4498 86.339 67.8741 86.4602 68.3778 86.4602Z" fill="white"/>
<rect x="286" y="63" width="126" height="39" rx="2" fill="#054BB4"/>
<path d="M300.261 88H298.398L302.585 76.3636H304.614L308.801 88H306.938L303.648 78.4773H303.557L300.261 88ZM300.574 83.4432H306.619V84.9205H300.574V83.4432ZM315.874 84.3807V79.2727H317.578V88H315.908V86.4886H315.817C315.616 86.9545 315.294 87.3428 314.851 87.6534C314.411 87.9602 313.864 88.1136 313.209 88.1136C312.648 88.1136 312.152 87.9905 311.72 87.7443C311.292 87.4943 310.955 87.125 310.709 86.6364C310.466 86.1477 310.345 85.5436 310.345 84.8239V79.2727H312.044V84.6193C312.044 85.214 312.209 85.6875 312.538 86.0398C312.868 86.392 313.296 86.5682 313.822 86.5682C314.141 86.5682 314.457 86.4886 314.771 86.3295C315.089 86.1705 315.353 85.9299 315.561 85.608C315.773 85.286 315.877 84.8769 315.874 84.3807ZM323.935 79.2727V80.6364H319.168V79.2727H323.935ZM320.446 77.1818H322.145V85.4375C322.145 85.767 322.194 86.0152 322.293 86.1818C322.391 86.3447 322.518 86.4564 322.673 86.517C322.832 86.5739 323.005 86.6023 323.19 86.6023C323.327 86.6023 323.446 86.5928 323.548 86.5739C323.651 86.5549 323.73 86.5398 323.787 86.5284L324.094 87.9318C323.995 87.9697 323.855 88.0076 323.673 88.0455C323.491 88.0871 323.264 88.1098 322.991 88.1136C322.545 88.1212 322.128 88.0417 321.741 87.875C321.355 87.7083 321.043 87.4508 320.804 87.1023C320.565 86.7538 320.446 86.3163 320.446 85.7898V77.1818ZM329.396 88.1761C328.578 88.1761 327.864 87.9886 327.254 87.6136C326.644 87.2386 326.171 86.714 325.834 86.0398C325.497 85.3655 325.328 84.5777 325.328 83.6761C325.328 82.7708 325.497 81.9792 325.834 81.3011C326.171 80.6231 326.644 80.0966 327.254 79.7216C327.864 79.3466 328.578 79.1591 329.396 79.1591C330.214 79.1591 330.929 79.3466 331.538 79.7216C332.148 80.0966 332.622 80.6231 332.959 81.3011C333.296 81.9792 333.464 82.7708 333.464 83.6761C333.464 84.5777 333.296 85.3655 332.959 86.0398C332.622 86.714 332.148 87.2386 331.538 87.6136C330.929 87.9886 330.214 88.1761 329.396 88.1761ZM329.402 86.75C329.932 86.75 330.372 86.6098 330.72 86.3295C331.069 86.0492 331.326 85.6761 331.493 85.2102C331.663 84.7443 331.749 84.2311 331.749 83.6705C331.749 83.1136 331.663 82.6023 331.493 82.1364C331.326 81.6667 331.069 81.2898 330.72 81.0057C330.372 80.7216 329.932 80.5795 329.402 80.5795C328.868 80.5795 328.425 80.7216 328.072 81.0057C327.724 81.2898 327.464 81.6667 327.294 82.1364C327.127 82.6023 327.044 83.1136 327.044 83.6705C327.044 84.2311 327.127 84.7443 327.294 85.2102C327.464 85.6761 327.724 86.0492 328.072 86.3295C328.425 86.6098 328.868 86.75 329.402 86.75ZM335.361 88V79.2727H336.991V80.6932H337.099C337.281 80.2121 337.579 79.8371 337.991 79.5682C338.404 79.2955 338.899 79.1591 339.474 79.1591C340.058 79.1591 340.546 79.2955 340.94 79.5682C341.338 79.8409 341.632 80.2159 341.821 80.6932H341.912C342.12 80.2273 342.452 79.8561 342.906 79.5795C343.361 79.2992 343.902 79.1591 344.531 79.1591C345.323 79.1591 345.969 79.4072 346.469 79.9034C346.973 80.3996 347.224 81.1477 347.224 82.1477V88H345.526V82.3068C345.526 81.7159 345.365 81.2879 345.043 81.0227C344.721 80.7576 344.336 80.625 343.889 80.625C343.336 80.625 342.906 80.7955 342.599 81.1364C342.293 81.4735 342.139 81.9072 342.139 82.4375V88H340.446V82.1989C340.446 81.7254 340.298 81.3447 340.003 81.0568C339.707 80.7689 339.323 80.625 338.849 80.625C338.527 80.625 338.23 80.7102 337.957 80.8807C337.688 81.0473 337.471 81.2803 337.304 81.5795C337.141 81.8788 337.06 82.2254 337.06 82.6193V88H335.361ZM352.041 88.1932C351.488 88.1932 350.988 88.0909 350.541 87.8864C350.094 87.678 349.74 87.3769 349.479 86.983C349.221 86.589 349.092 86.1061 349.092 85.5341C349.092 85.0417 349.187 84.6364 349.376 84.3182C349.566 84 349.821 83.7481 350.143 83.5625C350.465 83.3769 350.825 83.2367 351.223 83.142C351.621 83.0473 352.026 82.9754 352.439 82.9261C352.962 82.8655 353.386 82.8163 353.712 82.7784C354.037 82.7367 354.274 82.6705 354.422 82.5795C354.57 82.4886 354.643 82.3409 354.643 82.1364V82.0966C354.643 81.6004 354.503 81.2159 354.223 80.9432C353.946 80.6705 353.534 80.5341 352.984 80.5341C352.412 80.5341 351.962 80.661 351.632 80.9148C351.306 81.1648 351.081 81.4432 350.956 81.75L349.359 81.3864C349.549 80.8561 349.825 80.428 350.189 80.1023C350.556 79.7727 350.979 79.5341 351.456 79.3864C351.933 79.2348 352.435 79.1591 352.962 79.1591C353.31 79.1591 353.679 79.2008 354.07 79.2841C354.464 79.3636 354.831 79.5114 355.172 79.7273C355.517 79.9432 355.799 80.2519 356.018 80.6534C356.238 81.0511 356.348 81.5682 356.348 82.2045V88H354.689V86.8068H354.621C354.511 87.0265 354.346 87.2424 354.126 87.4545C353.907 87.6667 353.625 87.8428 353.28 87.983C352.935 88.1231 352.522 88.1932 352.041 88.1932ZM352.411 86.8295C352.88 86.8295 353.282 86.7367 353.615 86.5511C353.952 86.3655 354.208 86.1231 354.382 85.8239C354.56 85.5208 354.649 85.197 354.649 84.8523V83.7273C354.589 83.7879 354.471 83.8447 354.297 83.8977C354.126 83.947 353.931 83.9905 353.712 84.0284C353.492 84.0625 353.278 84.0947 353.07 84.125C352.861 84.1515 352.687 84.1742 352.547 84.1932C352.217 84.2348 351.916 84.3049 351.643 84.4034C351.375 84.5019 351.159 84.6439 350.996 84.8295C350.837 85.0114 350.757 85.2538 350.757 85.5568C350.757 85.9773 350.912 86.2955 351.223 86.5114C351.534 86.7235 351.929 86.8295 352.411 86.8295ZM362.685 79.2727V80.6364H357.918V79.2727H362.685ZM359.196 77.1818H360.895V85.4375C360.895 85.767 360.944 86.0152 361.043 86.1818C361.141 86.3447 361.268 86.4564 361.423 86.517C361.582 86.5739 361.755 86.6023 361.94 86.6023C362.077 86.6023 362.196 86.5928 362.298 86.5739C362.401 86.5549 362.48 86.5398 362.537 86.5284L362.844 87.9318C362.745 87.9697 362.605 88.0076 362.423 88.0455C362.241 88.0871 362.014 88.1098 361.741 88.1136C361.295 88.1212 360.878 88.0417 360.491 87.875C360.105 87.7083 359.793 87.4508 359.554 87.1023C359.315 86.7538 359.196 86.3163 359.196 85.7898V77.1818ZM364.564 88V79.2727H366.263V88H364.564ZM365.422 77.9261C365.126 77.9261 364.873 77.8277 364.661 77.6307C364.452 77.4299 364.348 77.1913 364.348 76.9148C364.348 76.6345 364.452 76.3958 364.661 76.1989C364.873 75.9981 365.126 75.8977 365.422 75.8977C365.717 75.8977 365.969 75.9981 366.178 76.1989C366.39 76.3958 366.496 76.6345 366.496 76.9148C366.496 77.1913 366.39 77.4299 366.178 77.6307C365.969 77.8277 365.717 77.9261 365.422 77.9261ZM370.247 82.8182V88H368.548V79.2727H370.179V80.6932H370.287C370.488 80.2311 370.802 79.8598 371.23 79.5795C371.662 79.2992 372.205 79.1591 372.861 79.1591C373.455 79.1591 373.976 79.2841 374.423 79.5341C374.87 79.7803 375.217 80.1477 375.463 80.6364C375.709 81.125 375.832 81.7292 375.832 82.4489V88H374.134V82.6534C374.134 82.0208 373.969 81.5265 373.639 81.1705C373.31 80.8106 372.857 80.6307 372.281 80.6307C371.887 80.6307 371.537 80.7159 371.23 80.8864C370.927 81.0568 370.687 81.3068 370.509 81.6364C370.334 81.9621 370.247 82.3561 370.247 82.8182ZM381.77 91.4545C381.077 91.4545 380.48 91.3636 379.98 91.1818C379.484 91 379.079 90.7595 378.764 90.4602C378.45 90.161 378.215 89.8333 378.06 89.4773L379.52 88.875C379.622 89.0417 379.759 89.2178 379.929 89.4034C380.103 89.5928 380.338 89.7538 380.634 89.8864C380.933 90.0189 381.317 90.0852 381.787 90.0852C382.431 90.0852 382.963 89.928 383.384 89.6136C383.804 89.303 384.014 88.8068 384.014 88.125V86.4091H383.906C383.804 86.5947 383.656 86.8011 383.463 87.0284C383.274 87.2557 383.012 87.4527 382.679 87.6193C382.346 87.786 381.912 87.8693 381.378 87.8693C380.688 87.8693 380.067 87.7083 379.514 87.3864C378.965 87.0606 378.529 86.5814 378.207 85.9489C377.889 85.3125 377.73 84.5303 377.73 83.6023C377.73 82.6742 377.887 81.8788 378.202 81.2159C378.52 80.553 378.955 80.0455 379.509 79.6932C380.062 79.3371 380.688 79.1591 381.389 79.1591C381.931 79.1591 382.368 79.25 382.702 79.4318C383.035 79.6098 383.295 79.8182 383.48 80.0568C383.67 80.2955 383.815 80.5057 383.918 80.6875H384.043V79.2727H385.707V88.1932C385.707 88.9432 385.533 89.5587 385.185 90.0398C384.836 90.5208 384.365 90.8769 383.77 91.108C383.179 91.339 382.512 91.4545 381.77 91.4545ZM381.753 86.4602C382.241 86.4602 382.654 86.3466 382.991 86.1193C383.332 85.8883 383.59 85.5587 383.764 85.1307C383.942 84.6989 384.031 84.1818 384.031 83.5795C384.031 82.9924 383.944 82.4754 383.77 82.0284C383.596 81.5814 383.34 81.233 383.003 80.983C382.666 80.7292 382.249 80.6023 381.753 80.6023C381.241 80.6023 380.815 80.7348 380.474 81C380.134 81.2614 379.876 81.6174 379.702 82.0682C379.531 82.5189 379.446 83.0227 379.446 83.5795C379.446 84.1515 379.533 84.6534 379.707 85.0852C379.882 85.517 380.139 85.8542 380.48 86.0966C380.825 86.339 381.249 86.4602 381.753 86.4602Z" fill="white"/>
<rect y="142" width="126" height="39" rx="2" fill="#054BB4"/>
<path d="M13.2784 155.364H15.4091L19.1136 164.409H19.25L22.9545 155.364H25.0852V167H23.4148V158.58H23.3068L19.875 166.983H18.4886L15.0568 158.574H14.9489V167H13.2784V155.364ZM30.0412 167.193C29.4882 167.193 28.9882 167.091 28.5412 166.886C28.0942 166.678 27.7401 166.377 27.4787 165.983C27.2211 165.589 27.0923 165.106 27.0923 164.534C27.0923 164.042 27.187 163.636 27.3764 163.318C27.5658 163 27.8215 162.748 28.1435 162.562C28.4654 162.377 28.8253 162.237 29.223 162.142C29.6207 162.047 30.026 161.975 30.4389 161.926C30.9616 161.866 31.3859 161.816 31.7116 161.778C32.0374 161.737 32.2741 161.67 32.4219 161.58C32.5696 161.489 32.6435 161.341 32.6435 161.136V161.097C32.6435 160.6 32.5033 160.216 32.223 159.943C31.9465 159.67 31.5336 159.534 30.9844 159.534C30.4124 159.534 29.9616 159.661 29.6321 159.915C29.3063 160.165 29.081 160.443 28.956 160.75L27.3594 160.386C27.5488 159.856 27.8253 159.428 28.1889 159.102C28.5563 158.773 28.9787 158.534 29.456 158.386C29.9332 158.235 30.4351 158.159 30.9616 158.159C31.3101 158.159 31.6795 158.201 32.0696 158.284C32.4635 158.364 32.831 158.511 33.1719 158.727C33.5166 158.943 33.7988 159.252 34.0185 159.653C34.2382 160.051 34.348 160.568 34.348 161.205V167H32.6889V165.807H32.6207C32.5109 166.027 32.3461 166.242 32.1264 166.455C31.9067 166.667 31.6245 166.843 31.2798 166.983C30.9351 167.123 30.5223 167.193 30.0412 167.193ZM30.4105 165.83C30.8802 165.83 31.2817 165.737 31.6151 165.551C31.9522 165.366 32.2079 165.123 32.3821 164.824C32.5601 164.521 32.6491 164.197 32.6491 163.852V162.727C32.5885 162.788 32.4711 162.845 32.2969 162.898C32.1264 162.947 31.9313 162.991 31.7116 163.028C31.492 163.062 31.2779 163.095 31.0696 163.125C30.8613 163.152 30.687 163.174 30.5469 163.193C30.2173 163.235 29.9162 163.305 29.6435 163.403C29.3745 163.502 29.1586 163.644 28.9957 163.83C28.8366 164.011 28.7571 164.254 28.7571 164.557C28.7571 164.977 28.9124 165.295 29.223 165.511C29.5336 165.723 29.9295 165.83 30.4105 165.83ZM36.6108 167V158.273H38.2528V159.659H38.3438C38.5028 159.189 38.7831 158.82 39.1847 158.551C39.59 158.278 40.0483 158.142 40.5597 158.142C40.6657 158.142 40.7907 158.146 40.9347 158.153C41.0824 158.161 41.1979 158.17 41.2812 158.182V159.807C41.2131 159.788 41.0919 159.767 40.9176 159.744C40.7434 159.718 40.5691 159.705 40.3949 159.705C39.9934 159.705 39.6354 159.79 39.321 159.96C39.0104 160.127 38.7642 160.36 38.5824 160.659C38.4006 160.955 38.3097 161.292 38.3097 161.67V167H36.6108ZM44.3139 164.04L44.3026 161.966H44.598L48.0753 158.273H50.1094L46.1435 162.477H45.8764L44.3139 164.04ZM42.7514 167V155.364H44.4503V167H42.7514ZM48.2628 167L45.1378 162.852L46.3082 161.665L50.348 167H48.2628ZM55.0597 167.176C54.1998 167.176 53.4593 166.992 52.8381 166.625C52.2206 166.254 51.7434 165.733 51.4062 165.062C51.0729 164.388 50.9062 163.598 50.9062 162.693C50.9062 161.799 51.0729 161.011 51.4062 160.33C51.7434 159.648 52.2131 159.116 52.8153 158.733C53.4214 158.35 54.1297 158.159 54.9403 158.159C55.4328 158.159 55.91 158.241 56.3722 158.403C56.8343 158.566 57.2491 158.822 57.6165 159.17C57.9839 159.519 58.2737 159.972 58.4858 160.528C58.6979 161.081 58.804 161.754 58.804 162.545V163.148H51.8665V161.875H57.1392C57.1392 161.428 57.0483 161.032 56.8665 160.688C56.6847 160.339 56.429 160.064 56.0994 159.864C55.7737 159.663 55.3911 159.562 54.9517 159.562C54.4744 159.562 54.0578 159.68 53.7017 159.915C53.3494 160.146 53.0767 160.449 52.8835 160.824C52.6941 161.195 52.5994 161.598 52.5994 162.034V163.028C52.5994 163.612 52.7017 164.108 52.9062 164.517C53.1146 164.926 53.4044 165.239 53.7756 165.455C54.1468 165.667 54.5805 165.773 55.0767 165.773C55.3987 165.773 55.6922 165.727 55.9574 165.636C56.2225 165.542 56.4517 165.402 56.6449 165.216C56.8381 165.03 56.9858 164.801 57.0881 164.528L58.696 164.818C58.5672 165.292 58.3362 165.706 58.0028 166.062C57.6733 166.415 57.2585 166.689 56.7585 166.886C56.2623 167.08 55.696 167.176 55.0597 167.176ZM64.7628 158.273V159.636H59.9957V158.273H64.7628ZM61.2741 156.182H62.973V164.438C62.973 164.767 63.0223 165.015 63.1207 165.182C63.2192 165.345 63.3461 165.456 63.5014 165.517C63.6605 165.574 63.8329 165.602 64.0185 165.602C64.1548 165.602 64.2741 165.593 64.3764 165.574C64.4787 165.555 64.5582 165.54 64.6151 165.528L64.9219 166.932C64.8234 166.97 64.6832 167.008 64.5014 167.045C64.3196 167.087 64.0923 167.11 63.8196 167.114C63.3726 167.121 62.956 167.042 62.5696 166.875C62.1832 166.708 61.8707 166.451 61.6321 166.102C61.3935 165.754 61.2741 165.316 61.2741 164.79V156.182Z" fill="white"/>
<rect x="286" y="142" width="126" height="39" rx="2" fill="#054BB4"/>
<path d="M308.943 159.148H307.17C307.102 158.769 306.975 158.436 306.79 158.148C306.604 157.86 306.377 157.616 306.108 157.415C305.839 157.214 305.538 157.062 305.205 156.96C304.875 156.858 304.525 156.807 304.153 156.807C303.483 156.807 302.883 156.975 302.352 157.312C301.826 157.65 301.409 158.144 301.102 158.795C300.799 159.447 300.648 160.242 300.648 161.182C300.648 162.129 300.799 162.928 301.102 163.58C301.409 164.231 301.828 164.723 302.358 165.057C302.888 165.39 303.485 165.557 304.148 165.557C304.515 165.557 304.864 165.508 305.193 165.409C305.527 165.307 305.828 165.157 306.097 164.96C306.366 164.763 306.593 164.523 306.778 164.239C306.968 163.951 307.098 163.621 307.17 163.25L308.943 163.256C308.848 163.828 308.665 164.354 308.392 164.835C308.123 165.312 307.777 165.725 307.352 166.074C306.932 166.419 306.451 166.686 305.909 166.875C305.367 167.064 304.777 167.159 304.136 167.159C303.129 167.159 302.231 166.92 301.443 166.443C300.655 165.962 300.034 165.275 299.58 164.381C299.129 163.487 298.903 162.42 298.903 161.182C298.903 159.939 299.131 158.873 299.585 157.983C300.04 157.089 300.661 156.403 301.449 155.926C302.237 155.445 303.133 155.205 304.136 155.205C304.754 155.205 305.33 155.294 305.864 155.472C306.402 155.646 306.884 155.903 307.312 156.244C307.741 156.581 308.095 156.994 308.375 157.483C308.655 157.968 308.845 158.523 308.943 159.148ZM310.908 167V158.273H312.55V159.659H312.641C312.8 159.189 313.08 158.82 313.482 158.551C313.887 158.278 314.345 158.142 314.857 158.142C314.963 158.142 315.088 158.146 315.232 158.153C315.379 158.161 315.495 158.17 315.578 158.182V159.807C315.51 159.788 315.389 159.767 315.214 159.744C315.04 159.718 314.866 159.705 314.692 159.705C314.29 159.705 313.932 159.79 313.618 159.96C313.307 160.127 313.061 160.36 312.879 160.659C312.697 160.955 312.607 161.292 312.607 161.67V167H310.908ZM320.497 167.176C319.637 167.176 318.897 166.992 318.276 166.625C317.658 166.254 317.181 165.733 316.844 165.062C316.51 164.388 316.344 163.598 316.344 162.693C316.344 161.799 316.51 161.011 316.844 160.33C317.181 159.648 317.651 159.116 318.253 158.733C318.859 158.35 319.567 158.159 320.378 158.159C320.87 158.159 321.348 158.241 321.81 158.403C322.272 158.566 322.687 158.822 323.054 159.17C323.421 159.519 323.711 159.972 323.923 160.528C324.135 161.081 324.241 161.754 324.241 162.545V163.148H317.304V161.875H322.577C322.577 161.428 322.486 161.032 322.304 160.688C322.122 160.339 321.866 160.064 321.537 159.864C321.211 159.663 320.829 159.562 320.389 159.562C319.912 159.562 319.495 159.68 319.139 159.915C318.787 160.146 318.514 160.449 318.321 160.824C318.132 161.195 318.037 161.598 318.037 162.034V163.028C318.037 163.612 318.139 164.108 318.344 164.517C318.552 164.926 318.842 165.239 319.213 165.455C319.584 165.667 320.018 165.773 320.514 165.773C320.836 165.773 321.13 165.727 321.395 165.636C321.66 165.542 321.889 165.402 322.082 165.216C322.276 165.03 322.423 164.801 322.526 164.528L324.134 164.818C324.005 165.292 323.774 165.706 323.44 166.062C323.111 166.415 322.696 166.689 322.196 166.886C321.7 167.08 321.134 167.176 320.497 167.176ZM329.393 167.17C328.689 167.17 328.06 166.991 327.507 166.631C326.958 166.267 326.526 165.75 326.212 165.08C325.901 164.405 325.746 163.597 325.746 162.653C325.746 161.71 325.903 160.903 326.217 160.233C326.536 159.562 326.971 159.049 327.524 158.693C328.077 158.337 328.704 158.159 329.405 158.159C329.946 158.159 330.382 158.25 330.712 158.432C331.045 158.61 331.303 158.818 331.484 159.057C331.67 159.295 331.814 159.506 331.916 159.688H332.018V155.364H333.717V167H332.058V165.642H331.916C331.814 165.828 331.666 166.04 331.473 166.278C331.284 166.517 331.022 166.725 330.689 166.903C330.356 167.081 329.924 167.17 329.393 167.17ZM329.768 165.722C330.257 165.722 330.67 165.593 331.007 165.335C331.348 165.074 331.606 164.712 331.78 164.25C331.958 163.788 332.047 163.25 332.047 162.636C332.047 162.03 331.96 161.5 331.786 161.045C331.611 160.591 331.356 160.237 331.018 159.983C330.681 159.729 330.265 159.602 329.768 159.602C329.257 159.602 328.831 159.735 328.49 160C328.149 160.265 327.892 160.627 327.717 161.085C327.547 161.544 327.462 162.061 327.462 162.636C327.462 163.22 327.549 163.744 327.723 164.21C327.897 164.676 328.155 165.045 328.496 165.318C328.84 165.587 329.265 165.722 329.768 165.722ZM336.142 167V158.273H337.841V167H336.142ZM337 156.926C336.705 156.926 336.451 156.828 336.239 156.631C336.03 156.43 335.926 156.191 335.926 155.915C335.926 155.634 336.03 155.396 336.239 155.199C336.451 154.998 336.705 154.898 337 154.898C337.295 154.898 337.547 154.998 337.756 155.199C337.968 155.396 338.074 155.634 338.074 155.915C338.074 156.191 337.968 156.43 337.756 156.631C337.547 156.828 337.295 156.926 337 156.926ZM344.2 158.273V159.636H339.433V158.273H344.2ZM340.712 156.182H342.411V164.438C342.411 164.767 342.46 165.015 342.558 165.182C342.657 165.345 342.784 165.456 342.939 165.517C343.098 165.574 343.27 165.602 343.456 165.602C343.592 165.602 343.712 165.593 343.814 165.574C343.916 165.555 343.996 165.54 344.053 165.528L344.359 166.932C344.261 166.97 344.121 167.008 343.939 167.045C343.757 167.087 343.53 167.11 343.257 167.114C342.81 167.121 342.393 167.042 342.007 166.875C341.621 166.708 341.308 166.451 341.07 166.102C340.831 165.754 340.712 165.316 340.712 164.79V156.182Z" fill="white"/>
<path d="M100.454 22V5.27273H111.725V8.18856H103.99V12.1744H111.145V15.0902H103.99V19.0842H111.758V22H100.454ZM117.379 9.45455L119.682 13.8406L122.043 9.45455H125.612L121.978 15.7273L125.71 22H122.157L119.682 17.663L117.248 22H113.655L117.379 15.7273L113.785 9.45455H117.379ZM134.351 9.45455V12.0682H126.796V9.45455H134.351ZM128.512 6.44886H131.991V18.1449C131.991 18.4661 132.04 18.7166 132.138 18.8963C132.236 19.0705 132.372 19.1931 132.546 19.2638C132.726 19.3346 132.933 19.37 133.167 19.37C133.331 19.37 133.494 19.3564 133.657 19.3292C133.821 19.2965 133.946 19.272 134.033 19.2557L134.58 21.8448C134.406 21.8993 134.161 21.9619 133.845 22.0327C133.529 22.1089 133.145 22.1552 132.693 22.1715C131.855 22.2042 131.12 22.0926 130.488 21.8366C129.862 21.5807 129.375 21.1832 129.026 20.6442C128.678 20.1051 128.506 19.4245 128.512 18.6023V6.44886ZM136.618 22V9.45455H139.991V11.6435H140.122C140.351 10.8648 140.734 10.2768 141.274 9.87926C141.813 9.47633 142.433 9.27486 143.136 9.27486C143.31 9.27486 143.498 9.28575 143.699 9.30753C143.901 9.32931 144.078 9.35926 144.23 9.39737V12.4847C144.067 12.4357 143.841 12.3922 143.552 12.354C143.264 12.3159 143 12.2969 142.76 12.2969C142.248 12.2969 141.791 12.4085 141.388 12.6317C140.99 12.8495 140.675 13.1545 140.44 13.5465C140.212 13.9386 140.097 14.3905 140.097 14.9023V22H136.618ZM149.247 22.2369C148.447 22.2369 147.733 22.098 147.107 21.8203C146.481 21.5372 145.986 21.1206 145.621 20.5707C145.261 20.0153 145.082 19.3237 145.082 18.4961C145.082 17.7991 145.21 17.2138 145.466 16.7401C145.721 16.2663 146.07 15.8852 146.511 15.5966C146.952 15.308 147.453 15.0902 148.014 14.9432C148.58 14.7962 149.174 14.6927 149.794 14.6328C150.524 14.5566 151.112 14.4858 151.559 14.4205C152.005 14.3497 152.329 14.2462 152.531 14.1101C152.732 13.974 152.833 13.7725 152.833 13.5057V13.4567C152.833 12.9394 152.669 12.5392 152.343 12.256C152.021 11.9729 151.564 11.8313 150.971 11.8313C150.344 11.8313 149.846 11.9702 149.476 12.2479C149.106 12.5201 148.861 12.8632 148.741 13.277L145.523 13.0156C145.686 12.2533 146.007 11.5945 146.487 11.0391C146.966 10.4782 147.584 10.0481 148.341 9.74858C149.103 9.44366 149.985 9.29119 150.987 9.29119C151.684 9.29119 152.351 9.37287 152.988 9.53622C153.63 9.69957 154.199 9.95277 154.695 10.2958C155.196 10.6388 155.591 11.0799 155.879 11.619C156.168 12.1526 156.312 12.7924 156.312 13.5384V22H153.012V20.2603H152.914C152.713 20.6523 152.443 20.9981 152.106 21.2976C151.768 21.5916 151.363 21.823 150.889 21.9918C150.415 22.1552 149.868 22.2369 149.247 22.2369ZM150.244 19.8356C150.755 19.8356 151.207 19.7348 151.599 19.5334C151.991 19.3265 152.299 19.0488 152.522 18.7003C152.746 18.3518 152.857 17.957 152.857 17.516V16.1847C152.748 16.2554 152.599 16.3208 152.408 16.3807C152.223 16.4351 152.013 16.4869 151.779 16.5359C151.545 16.5794 151.311 16.6203 151.077 16.6584C150.843 16.6911 150.63 16.721 150.44 16.7482C150.031 16.8081 149.675 16.9034 149.37 17.0341C149.065 17.1648 148.828 17.3417 148.659 17.565C148.49 17.7828 148.406 18.055 148.406 18.3817C148.406 18.8555 148.577 19.2176 148.92 19.468C149.269 19.7131 149.71 19.8356 150.244 19.8356ZM164.68 22.245C163.395 22.245 162.289 21.9728 161.364 21.4283C160.444 20.8783 159.736 20.116 159.24 19.1413C158.75 18.1667 158.505 17.045 158.505 15.7763C158.505 14.4912 158.753 13.3641 159.248 12.3949C159.749 11.4202 160.46 10.6606 161.38 10.1161C162.3 9.56617 163.395 9.29119 164.664 9.29119C165.758 9.29119 166.716 9.48994 167.539 9.88743C168.361 10.2849 169.011 10.843 169.491 11.5618C169.97 12.2805 170.234 13.1245 170.283 14.0938H166.999C166.907 13.4676 166.662 12.9639 166.264 12.5827C165.872 12.1961 165.358 12.0028 164.721 12.0028C164.182 12.0028 163.711 12.1499 163.308 12.4439C162.91 12.7325 162.6 13.1545 162.377 13.7099C162.153 14.2653 162.042 14.9377 162.042 15.7273C162.042 16.5277 162.151 17.2083 162.368 17.7692C162.592 18.33 162.905 18.7575 163.308 19.0515C163.711 19.3455 164.182 19.4925 164.721 19.4925C165.118 19.4925 165.475 19.4109 165.791 19.2475C166.112 19.0842 166.376 18.8473 166.583 18.5369C166.795 18.2211 166.934 17.8427 166.999 17.4016H170.283C170.228 18.36 169.967 19.204 169.499 19.9336C169.036 20.6578 168.396 21.2241 167.579 21.6325C166.763 22.0408 165.796 22.245 164.68 22.245ZM179.184 9.45455V12.0682H171.628V9.45455H179.184ZM173.344 6.44886H176.823V18.1449C176.823 18.4661 176.872 18.7166 176.97 18.8963C177.068 19.0705 177.204 19.1931 177.378 19.2638C177.558 19.3346 177.765 19.37 177.999 19.37C178.163 19.37 178.326 19.3564 178.489 19.3292C178.653 19.2965 178.778 19.272 178.865 19.2557L179.412 21.8448C179.238 21.8993 178.993 21.9619 178.677 22.0327C178.361 22.1089 177.977 22.1552 177.525 22.1715C176.687 22.2042 175.952 22.0926 175.32 21.8366C174.694 21.5807 174.207 21.1832 173.858 20.6442C173.51 20.1051 173.338 19.4245 173.344 18.6023V6.44886ZM186.839 22V5.27273H190.375V12.6481H190.596L196.615 5.27273H200.854L194.647 12.7624L200.928 22H196.697L192.115 15.1229L190.375 17.2464V22H186.839ZM207.427 22.245C206.137 22.245 205.026 21.9837 204.095 21.4609C203.169 20.9328 202.456 20.1868 201.955 19.223C201.454 18.2538 201.203 17.1076 201.203 15.7844C201.203 14.494 201.454 13.3614 201.955 12.3867C202.456 11.4121 203.161 10.6525 204.07 10.108C204.985 9.56345 206.058 9.29119 207.288 9.29119C208.116 9.29119 208.886 9.4246 209.6 9.69141C210.318 9.95277 210.945 10.3475 211.478 10.8757C212.017 11.4039 212.437 12.0682 212.736 12.8686C213.036 13.6636 213.185 14.5947 213.185 15.6619V16.6175H202.592V14.4613H209.91C209.91 13.9603 209.801 13.5166 209.583 13.13C209.366 12.7434 209.063 12.4412 208.677 12.2234C208.296 12.0001 207.852 11.8885 207.345 11.8885C206.817 11.8885 206.349 12.011 205.941 12.256C205.538 12.4956 205.222 12.8196 204.993 13.228C204.764 13.6309 204.647 14.0801 204.642 14.5756V16.6257C204.642 17.2464 204.756 17.7828 204.985 18.2347C205.219 18.6867 205.549 19.0352 205.973 19.2802C206.398 19.5252 206.902 19.6477 207.484 19.6477C207.871 19.6477 208.225 19.5933 208.546 19.4844C208.867 19.3755 209.142 19.2121 209.371 18.9943C209.6 18.7765 209.774 18.5097 209.894 18.1939L213.112 18.4062C212.948 19.1795 212.614 19.8546 212.107 20.4318C211.606 21.0036 210.958 21.45 210.163 21.7713C209.374 22.0871 208.462 22.245 207.427 22.245ZM217.267 26.7045C216.826 26.7045 216.412 26.6692 216.026 26.5984C215.644 26.533 215.329 26.4486 215.078 26.3452L215.862 23.7479C216.271 23.8731 216.638 23.9412 216.965 23.9521C217.297 23.9629 217.583 23.8867 217.822 23.7234C218.067 23.56 218.266 23.2823 218.419 22.8903L218.623 22.3594L214.123 9.45455H217.782L220.379 18.6676H220.51L223.131 9.45455H226.815L221.939 23.3558C221.705 24.031 221.386 24.6191 220.983 25.12C220.586 25.6264 220.082 26.0157 219.472 26.288C218.862 26.5657 218.127 26.7045 217.267 26.7045ZM231.07 22L227.656 9.45455H231.176L233.12 17.8835H233.235L235.26 9.45455H238.715L240.773 17.8345H240.88L242.791 9.45455H246.303L242.897 22H239.213L237.057 14.1101H236.902L234.746 22H231.07ZM253.513 22.245C252.244 22.245 251.147 21.9755 250.221 21.4364C249.301 20.8919 248.591 20.1351 248.09 19.1658C247.589 18.1912 247.338 17.0613 247.338 15.7763C247.338 14.4804 247.589 13.3478 248.09 12.3786C248.591 11.4039 249.301 10.647 250.221 10.108C251.147 9.56345 252.244 9.29119 253.513 9.29119C254.782 9.29119 255.876 9.56345 256.796 10.108C257.722 10.647 258.435 11.4039 258.936 12.3786C259.437 13.3478 259.688 14.4804 259.688 15.7763C259.688 17.0613 259.437 18.1912 258.936 19.1658C258.435 20.1351 257.722 20.8919 256.796 21.4364C255.876 21.9755 254.782 22.245 253.513 22.245ZM253.529 19.5497C254.106 19.5497 254.588 19.3864 254.975 19.0597C255.361 18.7275 255.653 18.2756 255.849 17.7038C256.05 17.1321 256.151 16.4814 256.151 15.7518C256.151 15.0221 256.05 14.3714 255.849 13.7997C255.653 13.228 255.361 12.776 254.975 12.4439C254.588 12.1117 254.106 11.9457 253.529 11.9457C252.947 11.9457 252.457 12.1117 252.059 12.4439C251.667 12.776 251.37 13.228 251.169 13.7997C250.973 14.3714 250.875 15.0221 250.875 15.7518C250.875 16.4814 250.973 17.1321 251.169 17.7038C251.37 18.2756 251.667 18.7275 252.059 19.0597C252.457 19.3864 252.947 19.5497 253.529 19.5497ZM261.95 22V9.45455H265.323V11.6435H265.454C265.683 10.8648 266.066 10.2768 266.606 9.87926C267.145 9.47633 267.765 9.27486 268.468 9.27486C268.642 9.27486 268.83 9.28575 269.031 9.30753C269.233 9.32931 269.41 9.35926 269.562 9.39737V12.4847C269.399 12.4357 269.173 12.3922 268.884 12.354C268.596 12.3159 268.332 12.2969 268.092 12.2969C267.58 12.2969 267.123 12.4085 266.72 12.6317C266.322 12.8495 266.007 13.1545 265.772 13.5465C265.544 13.9386 265.429 14.3905 265.429 14.9023V22H261.95ZM275.4 22.2042C274.447 22.2042 273.584 21.9592 272.811 21.4691C272.043 20.9736 271.433 20.2467 270.981 19.2884C270.535 18.3246 270.312 17.143 270.312 15.7436C270.312 14.3061 270.543 13.1109 271.006 12.158C271.469 11.1997 272.084 10.4837 272.852 10.0099C273.625 9.53078 274.472 9.29119 275.392 9.29119C276.094 9.29119 276.68 9.41098 277.148 9.65057C277.622 9.88471 278.003 10.1787 278.291 10.5327C278.585 10.8812 278.809 11.2242 278.961 11.5618H279.067V5.27273H282.539V22H279.108V19.9908H278.961C278.798 20.3393 278.566 20.685 278.267 21.0281C277.973 21.3656 277.589 21.6461 277.115 21.8693C276.647 22.0926 276.075 22.2042 275.4 22.2042ZM276.503 19.4354C277.064 19.4354 277.537 19.2829 277.924 18.978C278.316 18.6676 278.615 18.2347 278.822 17.6793C279.035 17.1239 279.141 16.4732 279.141 15.7273C279.141 14.9813 279.037 14.3333 278.83 13.7834C278.624 13.2334 278.324 12.8087 277.932 12.5092C277.54 12.2098 277.064 12.06 276.503 12.06C275.931 12.06 275.449 12.2152 275.057 12.5256C274.665 12.8359 274.368 13.2661 274.167 13.8161C273.965 14.366 273.865 15.0031 273.865 15.7273C273.865 16.4569 273.965 17.1022 274.167 17.663C274.374 18.2184 274.67 18.654 275.057 18.9698C275.449 19.2802 275.931 19.4354 276.503 19.4354ZM295.837 13.032L292.652 13.228C292.598 12.9557 292.481 12.7107 292.301 12.4929C292.121 12.2696 291.884 12.0927 291.59 11.962C291.302 11.8259 290.956 11.7578 290.553 11.7578C290.014 11.7578 289.559 11.8722 289.189 12.1009C288.819 12.3241 288.634 12.6236 288.634 12.9993C288.634 13.2988 288.753 13.552 288.993 13.7589C289.233 13.9658 289.644 14.1319 290.226 14.2571L292.497 14.7145C293.717 14.965 294.626 15.3679 295.225 15.9233C295.824 16.4787 296.123 17.2083 296.123 18.1122C296.123 18.9344 295.881 19.6559 295.396 20.2766C294.917 20.8974 294.258 21.382 293.42 21.7305C292.587 22.0735 291.626 22.245 290.537 22.245C288.876 22.245 287.553 21.8993 286.567 21.2077C285.587 20.5108 285.013 19.5633 284.844 18.3654L288.266 18.1857C288.37 18.6921 288.62 19.0787 289.017 19.3455C289.415 19.6069 289.924 19.7376 290.545 19.7376C291.155 19.7376 291.645 19.6205 292.015 19.3864C292.391 19.1468 292.581 18.8391 292.587 18.4634C292.581 18.1476 292.448 17.889 292.187 17.6875C291.925 17.4806 291.522 17.3227 290.978 17.2138L288.805 16.7809C287.58 16.5359 286.668 16.1112 286.069 15.5067C285.475 14.9023 285.179 14.1319 285.179 13.1953C285.179 12.3894 285.397 11.6952 285.832 11.1126C286.273 10.5299 286.891 10.0807 287.686 9.76491C288.487 9.4491 289.423 9.29119 290.496 9.29119C292.08 9.29119 293.327 9.62607 294.237 10.2958C295.151 10.9656 295.685 11.8776 295.837 13.032Z" fill="black"/>
<path d="M197.5 26C182.979 63.4335 166.418 79.6792 126 82.5" stroke="black"/>
<path d="M197.5 26C215.453 68.7337 249.278 80.9545 284.5 84" stroke="black"/>
<path d="M197 27C197.825 91.1108 189.045 123.447 126.5 168.25" stroke="black"/>
<path d="M197.137 27C195.404 108.559 219.229 136.717 285.637 170" stroke="black"/>
</svg>
