<svg width="20" height="20" viewBox="0 0 20 20" fill="none" xmlns="http://www.w3.org/2000/svg">
<g id="logos:facebook" clip-path="url(#clip0_965_711)">
<path id="Vector" d="M20 9.99292C20 4.47011 15.5228 -0.00708008 10 -0.00708008C4.47719 -0.00708008 0 4.47011 0 9.99292C0 14.9842 3.65687 19.1213 8.4375 19.8714V12.8835H5.89844V9.99292H8.4375V7.7898C8.4375 5.28355 9.93047 3.89917 12.2147 3.89917C13.3088 3.89917 14.4531 4.09448 14.4531 4.09448V6.55542H13.1922C11.9499 6.55542 11.5625 7.32628 11.5625 8.11714V9.99292H14.3359L13.8926 12.8835H11.5625V19.8714C16.3431 19.1213 20 14.9842 20 9.99292Z" fill="#1877F2"/>
<path id="Vector_2" d="M13.8926 12.8835L14.3359 9.99292H11.5625V8.11714C11.5625 7.3262 11.9499 6.55542 13.1922 6.55542H14.4531V4.09448C14.4531 4.09448 13.3088 3.89917 12.2146 3.89917C9.93047 3.89917 8.4375 5.28355 8.4375 7.7898V9.99292H5.89844V12.8835H8.4375V19.8714C8.95439 19.9524 9.4768 19.993 10 19.9929C10.5232 19.993 11.0456 19.9524 11.5625 19.8714V12.8835H13.8926Z" fill="white"/>
</g>
<defs>
<clipPath id="clip0_965_711">
<rect width="20" height="20" fill="white" transform="translate(0 -0.00708008)"/>
</clipPath>
</defs>
</svg>
