<svg width="21" height="21" viewBox="0 0 21 21" fill="none" xmlns="http://www.w3.org/2000/svg">
<g id="Fire icon">
<path id="Vector" d="M5.96014 6.83458C5.87036 7.79218 5.80736 9.48688 6.37279 10.2082C6.37279 10.2082 6.10661 8.34658 8.49274 6.01086C9.45349 5.07058 9.67556 3.79168 9.34009 2.83251C9.14951 2.28913 8.80144 1.84026 8.49904 1.52683C8.32264 1.34256 8.45809 1.03858 8.71481 1.04961C10.2678 1.11891 12.7846 1.55046 13.854 4.23426C14.3234 5.41236 14.358 6.62983 14.1344 7.86778C13.9926 8.65843 13.4886 10.4161 14.6384 10.6319C15.459 10.7863 15.8559 10.1342 16.0338 9.66486C16.1079 9.46956 16.3646 9.42073 16.5032 9.57666C17.8892 11.1532 18.0073 13.0102 17.7207 14.6088C17.1663 17.6989 14.0367 19.948 10.9277 19.948C7.04374 19.948 3.95201 17.7257 3.15034 13.7032C2.82746 12.0793 2.99126 8.86633 5.49551 6.59833C5.68136 6.42823 5.98534 6.57943 5.96014 6.83458Z" fill="url(#paint0_radial_1771_1396)"/>
<path id="Vector_2" d="M12.3467 12.6134C10.9151 10.7706 11.5561 8.66802 11.9073 7.83012C11.9546 7.71987 11.8286 7.61592 11.7293 7.68364C11.1135 8.10259 9.85193 9.08854 9.26446 10.4761C8.46908 12.3519 8.52578 13.2702 8.9967 14.3916C9.2802 15.0672 8.95103 15.2106 8.78565 15.2358C8.625 15.261 8.47696 15.1539 8.35883 15.042C8.01907 14.7157 7.77692 14.3013 7.65953 13.845C7.63433 13.7474 7.50675 13.7206 7.44848 13.8009C7.00748 14.4105 6.7791 15.3885 6.76808 16.08C6.73343 18.2172 8.499 19.9497 10.6347 19.9497C13.3264 19.9497 15.2873 16.973 13.7406 14.4845C13.2917 13.76 12.8696 13.2859 12.3467 12.6134Z" fill="url(#paint1_radial_1771_1396)"/>
</g>
<defs>
<radialGradient id="paint0_radial_1771_1396" cx="0" cy="0" r="1" gradientUnits="userSpaceOnUse" gradientTransform="translate(10.1584 19.997) rotate(-179.751) scale(11.1176 18.2417)">
<stop offset="0.314" stop-color="#FF9800"/>
<stop offset="0.662" stop-color="#FF6D00"/>
<stop offset="0.972" stop-color="#F44336"/>
</radialGradient>
<radialGradient id="paint1_radial_1771_1396" cx="0" cy="0" r="1" gradientUnits="userSpaceOnUse" gradientTransform="translate(10.7827 8.93394) rotate(90.5787) scale(11.6324 8.75424)">
<stop offset="0.214" stop-color="#FFF176"/>
<stop offset="0.328" stop-color="#FFF27D"/>
<stop offset="0.487" stop-color="#FFF48F"/>
<stop offset="0.672" stop-color="#FFF7AD"/>
<stop offset="0.793" stop-color="#FFF9C4"/>
<stop offset="0.822" stop-color="#FFF8BD" stop-opacity="0.804"/>
<stop offset="0.863" stop-color="#FFF6AB" stop-opacity="0.529"/>
<stop offset="0.91" stop-color="#FFF38D" stop-opacity="0.209"/>
<stop offset="0.941" stop-color="#FFF176" stop-opacity="0"/>
</radialGradient>
</defs>
</svg>
