<svg width="305" height="300" viewBox="0 0 305 300" fill="none" xmlns="http://www.w3.org/2000/svg">
<path d="M97.532 9.47561C68.556 20.2945 43.6328 39.8062 26.1757 65.3386C8.71863 90.8711 -0.418815 121.176 0.014737 152.103L35.37 151.607C35.0387 127.97 42.0222 104.809 55.3642 85.2954C68.7062 65.7816 87.7544 50.8693 109.9 42.6007L97.532 9.47561Z" fill="#F0CF2E"/>
<path d="M305 150C305 125.696 299.094 101.755 287.791 80.2391C276.488 58.7231 260.125 40.2759 240.112 26.4852C220.099 12.6945 197.035 3.97336 172.904 1.07236C148.773 -1.82864 124.299 1.17739 101.588 9.83173L113.275 40.502C131.017 33.7413 150.136 31.393 168.987 33.6593C187.837 35.9255 205.855 42.7384 221.489 53.5115C237.123 64.2846 249.905 78.6954 258.735 95.5035C267.565 112.312 272.178 131.014 272.178 150H305Z" fill="#FFEB97"/>
</svg>
