<svg width="98" height="92" viewBox="0 0 98 92" fill="none" xmlns="http://www.w3.org/2000/svg">
<g id="Group">
<path id="Vector" d="M17.345 82.5113L20.799 80.7393L17.654 83.7743L20.96 86.7573L17.361 84.9253L16.49 90.1613L15.555 84.9333L12.101 86.8263L15.247 83.7913L12.061 80.8083L15.54 82.5203L16.41 77.4043L17.345 82.5113Z" fill="#ECE4BA"/>
<path id="Vector_2" d="M36.8641 5.9991L40.3181 4.2271L37.1721 7.26208L40.4781 10.2451L36.8791 8.41309L36.0091 13.6491L35.0741 8.4211L31.6201 10.3141L34.7651 7.2791L31.5801 4.2961L35.0581 6.00809L35.9291 0.89209L36.8641 5.9991Z" fill="#ECE4BA"/>
<path id="Vector_3" d="M2.975 55.8823L4.919 54.8853L3.148 56.5933L5.009 58.2723L2.983 57.2413L2.493 60.1883L1.967 57.2463L0.0229988 58.3113L1.793 56.6033L0 54.9243L1.958 55.8873L2.448 53.0073L2.975 55.8823Z" fill="#ECE4BA"/>
<path id="Vector_4" d="M59.9681 84.769L61.9131 83.772L60.1421 85.48L62.0031 87.1591L59.9771 86.1281L59.4871 89.076L58.9611 86.1331L57.0161 87.1981L58.7871 85.4901L56.9941 83.811L58.9521 84.774L59.4421 81.894L59.9681 84.769Z" fill="#ECE4BA"/>
<path id="Vector_5" d="M95.101 23.8721L97.046 22.8741L95.275 24.5831L97.136 26.2621L95.11 25.2301L94.62 28.1781L94.094 25.2361L92.15 26.3011L93.92 24.5931L92.127 22.9131L94.085 23.8771L94.575 20.9971L95.101 23.8721Z" fill="#ECE4BA"/>
<path id="Vector_6" d="M31.8622 74.6201L33.8062 73.6221L32.0352 75.3301L33.8962 77.0101L31.8702 75.9781L31.3812 78.9261L30.8542 75.9831L28.9102 77.0491L30.6812 75.3401L28.8872 73.6611L30.8462 74.6251L31.3352 71.7451L31.8622 74.6201Z" fill="#ECE4BA"/>
<path id="Vector_7" d="M12.3431 6.69629L14.2881 5.69829L12.5171 7.4063L14.3781 9.08629L12.3521 8.05429L11.8621 11.0023L11.3361 8.0593L9.39214 9.12529L11.1621 7.41629L9.36914 5.73729L11.3271 6.70129L11.8171 3.82129L12.3431 6.69629Z" fill="#ECE4BA"/>
<path id="Vector_8" d="M93.077 42.6939L96.531 40.9219L93.385 43.9559L96.691 46.9389L93.092 45.1069L92.222 50.3439L91.287 45.1159L87.833 47.0079L90.978 43.9739L87.793 40.9909L91.271 42.7019L92.142 37.5859L93.077 42.6939Z" fill="#ECE4BA"/>
<path id="Vector_9" d="M74.0599 15.9781L80.0209 12.9191L74.5929 18.1561L80.2979 23.3051L74.0869 20.1431L72.5849 29.1811L70.9709 20.1581L65.0099 23.4241L70.4379 18.1871L64.9409 13.0391L70.9449 15.9931L72.4469 7.16309L74.0599 15.9781Z" fill="#ECE4BA"/>
<path id="Vector_10" d="M22.5321 24.566L28.4931 21.507L23.0641 26.745L28.7701 31.893L22.5581 28.731L21.0561 37.769L19.4421 28.746L13.4811 32.012L18.9101 26.775L13.4121 21.627L19.4161 24.581L20.9181 15.751L22.5321 24.566Z" fill="#ECE4BA"/>
<path id="Vector_11" d="M88.1509 72.23L96.7029 67.842L88.9149 75.355L97.0999 82.741L88.1889 78.205L86.0339 91.171L83.7189 78.227L75.1669 82.913L82.9549 75.399L75.0679 68.013L83.6809 72.251L85.8359 59.583L88.1509 72.23Z" fill="#ECE4BA"/>
<path id="Vector_12" d="M55.8321 54.7121L79.5901 50.6491L55.8941 46.5951L63.1431 36.2571L52.9021 43.4371L48.7511 19.8091L44.6001 43.4371L34.3601 36.2571L41.5401 46.4981L17.9121 50.6491L41.6011 54.8101L34.3601 65.0401L44.6871 57.7301L48.7511 81.4881L52.8151 57.7301L63.1431 65.0401L55.8321 54.7121Z" fill="#ECE4BA"/>
</g>
</svg>
