<svg width="24" height="24" viewBox="0 0 24 24" fill="none" xmlns="http://www.w3.org/2000/svg">
<g id="history icon">
<path id="Vector" d="M22.0008 12.1049C22.0008 14.0828 21.4143 16.0163 20.3155 17.6608C19.2166 19.3054 17.6548 20.5872 15.8274 21.3441C14.0001 22.101 11.9893 22.299 10.0494 21.9132C8.10955 21.5273 6.32764 20.5749 4.92906 19.1763C3.53048 17.7777 2.57803 15.9958 2.19216 14.0559C1.80629 12.116 2.00433 10.1053 2.76124 8.27792C3.51815 6.45058 4.79993 4.88873 6.44449 3.78987C8.08905 2.69101 10.0225 2.10449 12.0004 2.10449C13.3137 2.10449 14.6141 2.36316 15.8274 2.86573C17.0407 3.3683 18.1432 4.10492 19.0718 5.03355C20.0004 5.96217 20.737 7.06461 21.2396 8.27792C21.7422 9.49123 22.0008 10.7916 22.0008 12.1049ZM18.4804 12.1807C18.4798 11.0572 18.1839 9.95369 17.6225 8.98055C17.0612 8.00741 16.2539 7.19886 15.2817 6.63588C14.3095 6.07289 13.2064 5.77523 12.083 5.77272C10.9595 5.7702 9.85515 6.06292 8.88043 6.62155C8.28876 6.96256 7.75497 7.39531 7.29895 7.90365V7.03586C7.29895 6.9032 7.24625 6.77597 7.15244 6.68216C7.05864 6.58835 6.93141 6.53565 6.79874 6.53565C6.66608 6.53565 6.53885 6.58835 6.44504 6.68216C6.35123 6.77597 6.29853 6.9032 6.29853 7.03586V9.1327C6.29887 9.26515 6.35171 9.39205 6.44549 9.48559C6.53926 9.57912 6.6663 9.63165 6.79874 9.63165H8.89306C9.02121 9.6252 9.14198 9.56976 9.23041 9.47678C9.31883 9.38379 9.36814 9.26039 9.36814 9.13207C9.36814 9.00376 9.31883 8.88035 9.23041 8.78737C9.14198 8.69439 9.02121 8.63894 8.89306 8.63249H7.98737C8.49471 8.04741 9.12198 7.57832 9.82662 7.25706C10.5312 6.9358 11.2968 6.76989 12.0712 6.7706C13.1408 6.77085 14.1864 7.08825 15.0757 7.68268C15.965 8.27711 16.658 9.12186 17.0673 10.1101C17.4765 11.0984 17.5835 12.1859 17.3748 13.235C17.166 14.2841 16.6509 15.2477 15.8945 16.0041C15.1382 16.7604 14.1745 17.2755 13.1254 17.4843C12.0763 17.693 10.9889 17.586 10.0006 17.1768C9.01232 16.7676 8.16757 16.0745 7.57314 15.1852C6.97871 14.2959 6.66131 13.2504 6.66106 12.1807C6.66106 12.048 6.60836 11.9208 6.51455 11.827C6.42074 11.7332 6.29351 11.6805 6.16085 11.6805C6.02818 11.6805 5.90095 11.7332 5.80714 11.827C5.71334 11.9208 5.66064 12.048 5.66064 12.1807C5.66064 13.0225 5.82645 13.8561 6.14861 14.6339C6.47077 15.4117 6.94296 16.1184 7.53824 16.7136C8.13351 17.3089 8.8402 17.7811 9.61796 18.1033C10.3957 18.4254 11.2293 18.5912 12.0712 18.5912C12.913 18.5912 13.7466 18.4254 14.5244 18.1033C15.3021 17.7811 16.0088 17.3089 16.6041 16.7136C17.1994 16.1184 17.6716 15.4117 17.9937 14.6339C18.3159 13.8561 18.4804 13.0225 18.4804 12.1807ZM12.464 12.0557V8.68049C12.4576 8.55234 12.4021 8.43157 12.3091 8.34314C12.2161 8.25472 12.0927 8.20541 11.9644 8.20541C11.8361 8.20541 11.7127 8.25472 11.6197 8.34314C11.5267 8.43157 11.4713 8.55234 11.4648 8.68049V12.2691C11.4647 12.3454 11.482 12.4207 11.5155 12.4893C11.549 12.5578 11.5978 12.6178 11.6581 12.6645L13.5996 14.6047C13.6459 14.6519 13.701 14.6895 13.7619 14.7153C13.8228 14.741 13.8882 14.7545 13.9543 14.7548C14.0204 14.7551 14.086 14.7424 14.1471 14.7172C14.2082 14.6921 14.2638 14.655 14.3105 14.6083C14.3573 14.5615 14.3943 14.506 14.4195 14.4448C14.4446 14.3837 14.4574 14.3182 14.457 14.2521C14.4567 14.186 14.4433 14.1206 14.4175 14.0597C14.3917 13.9988 14.3542 13.9436 14.307 13.8973L12.464 12.0557Z" fill="white"/>
</g>
</svg>
