<svg width="14" height="15" viewBox="0 0 14 15" fill="none" xmlns="http://www.w3.org/2000/svg">
<g id="history-line-icon 1" clip-path="url(#clip0_2340_67)">
<path id="Vector" d="M5.9284 4.76033C5.9284 4.4609 6.17121 4.2183 6.4709 4.2183C6.77031 4.2183 7.01313 4.4609 7.01313 4.76033V8.05926L9.27309 9.0518C9.5468 9.17229 9.67121 9.49166 9.55063 9.76514C9.43004 10.0389 9.11039 10.1629 8.83668 10.0424L6.28004 8.91957C6.07469 8.84253 5.9284 8.64446 5.9284 8.41224V4.76033ZM0.253751 4.69449C0.238985 4.64313 0.231056 4.58876 0.231056 4.53276L0.235431 2.52718C0.235431 2.2037 0.497657 1.9417 0.821407 1.9417C1.14488 1.9417 1.40738 2.2037 1.40738 2.52718L1.40574 3.28832C1.7542 2.82524 2.15909 2.40738 2.61106 2.04443C3.06988 1.67642 3.58367 1.36033 4.14723 1.10898C5.91363 0.321884 7.83043 0.324069 9.50195 0.96391C11.1609 1.59883 12.5798 2.86185 13.3714 4.60434C13.3867 4.63193 13.3995 4.66089 13.4099 4.69094C14.178 6.44354 14.1709 8.34093 13.5357 9.99681C12.9251 11.5893 11.7346 12.96 10.0959 13.7665C10.0855 13.7725 10.0751 13.7779 10.0641 13.7834C9.72398 13.9511 9.36797 14.091 9.00484 14.2014C8.86922 14.2413 8.72813 14.2284 8.60344 14.1615C8.19055 13.9394 8.2518 13.3293 8.69996 13.193C8.94004 13.1192 9.17356 13.0326 9.40188 12.9307C9.41309 12.925 9.42484 12.9198 9.4366 12.9149C9.49129 12.89 9.5457 12.8643 9.59957 12.8378C9.61406 12.8307 9.62883 12.8242 9.64387 12.8184C11.028 12.1327 12.0343 10.9713 12.5516 9.62252C13.0966 8.20078 13.0996 6.57249 12.431 5.07479L12.4307 5.07424C11.7619 3.57655 10.5484 2.49139 9.12707 1.94744C7.7041 1.40267 6.07469 1.39994 4.5757 2.06792C4.10808 2.27586 3.66925 2.54316 3.27004 2.86322C2.88284 3.17404 2.53639 3.53239 2.23891 3.9298L2.70649 3.9033C3.02996 3.88554 3.30695 4.13333 3.32473 4.45681C3.3425 4.78001 3.09449 5.05676 2.77074 5.07452L0.86461 5.18216C0.563282 5.19855 0.302423 4.98518 0.253751 4.69449ZM6.75227 14.4997C7.23215 14.5148 7.48207 13.9383 7.14219 13.5987C7.04457 13.5045 6.92617 13.4526 6.79055 13.4468C6.46461 13.4362 6.14852 13.3998 5.82832 13.3373C5.6227 13.2979 5.42254 13.3766 5.29813 13.5446C5.07527 13.8577 5.24426 14.294 5.62215 14.3702C5.99472 14.4439 6.37267 14.4872 6.75227 14.4997ZM3.49508 13.5648C3.81637 13.7503 4.22078 13.5627 4.28285 13.196C4.31649 12.9783 4.21887 12.7698 4.02965 12.6567C3.74883 12.4931 3.48742 12.3095 3.23695 12.1027C2.8607 11.7928 2.30289 12.1114 2.37945 12.5931C2.4016 12.7215 2.46285 12.8277 2.56238 12.9122C2.85496 13.1547 3.1669 13.373 3.49508 13.5648ZM1.07051 11.2066C1.31332 11.592 1.89547 11.5117 2.02426 11.0743C2.06555 10.9279 2.04504 10.7784 1.96492 10.6489C1.79293 10.3749 1.645 10.0883 1.51895 9.79027C1.34941 9.38757 0.788868 9.35397 0.573946 9.73454C0.493556 9.87524 0.483712 10.0482 0.546602 10.1973C0.693165 10.5462 0.869259 10.8861 1.07051 11.2066ZM0.0180477 7.99123C0.0350009 8.227 0.204259 8.42043 0.435587 8.46961C0.781212 8.53873 1.09156 8.26853 1.06969 7.91692C1.04645 7.59263 1.04973 7.2738 1.07844 6.94978C1.09457 6.75745 1.01035 6.57659 0.851212 6.46703C0.517071 6.24164 0.0667196 6.45337 0.0287118 6.85416C-0.00559864 7.23227 -0.00916501 7.61254 0.0180477 7.99123Z" fill="#5A5C5F"/>
</g>
<defs>
<clipPath id="clip0_2340_67">
<rect width="14" height="14" fill="white" transform="translate(0 0.5)"/>
</clipPath>
</defs>
</svg>
