<svg width="20" height="20" viewBox="0 0 20 20" fill="none" xmlns="http://www.w3.org/2000/svg">
<g id="skill-icons:instagram" clip-path="url(#clip0_965_724)">
<g id="Group">
<path id="Vector" d="M15.3125 -0.00708008H4.6875C2.09867 -0.00708008 0 2.09159 0 4.68042V15.3054C0 17.8943 2.09867 19.9929 4.6875 19.9929H15.3125C17.9013 19.9929 20 17.8943 20 15.3054V4.68042C20 2.09159 17.9013 -0.00708008 15.3125 -0.00708008Z" fill="url(#paint0_radial_965_724)"/>
<path id="Vector_2" d="M15.3125 -0.00708008H4.6875C2.09867 -0.00708008 0 2.09159 0 4.68042V15.3054C0 17.8943 2.09867 19.9929 4.6875 19.9929H15.3125C17.9013 19.9929 20 17.8943 20 15.3054V4.68042C20 2.09159 17.9013 -0.00708008 15.3125 -0.00708008Z" fill="url(#paint1_radial_965_724)"/>
<path id="Vector_3" d="M10.0007 2.18042C7.87898 2.18042 7.61266 2.18972 6.77938 2.22761C5.94766 2.26573 5.37992 2.39737 4.8832 2.59058C4.3693 2.79011 3.93344 3.05706 3.49922 3.49144C3.06461 3.92573 2.79766 4.36159 2.5975 4.87526C2.40375 5.37214 2.27195 5.94011 2.23453 6.77144C2.19727 7.60479 2.1875 7.8712 2.1875 9.993C2.1875 12.1148 2.19688 12.3803 2.23469 13.2135C2.27297 14.0453 2.40461 14.613 2.59766 15.1097C2.79734 15.6236 3.0643 16.0595 3.49867 16.4937C3.93281 16.9283 4.36867 17.1959 4.88219 17.3954C5.3793 17.5886 5.94711 17.7203 6.77867 17.7584C7.61203 17.7963 7.87813 17.8056 9.99977 17.8056C12.1217 17.8056 12.3872 17.7963 13.2205 17.7584C14.0522 17.7203 14.6205 17.5886 15.1177 17.3954C15.6313 17.1959 16.0666 16.9283 16.5006 16.4937C16.9352 16.0595 17.2021 15.6236 17.4023 15.11C17.5944 14.613 17.7262 14.0451 17.7653 13.2137C17.8027 12.3804 17.8125 12.1148 17.8125 9.993C17.8125 7.8712 17.8027 7.60495 17.7653 6.77159C17.7262 5.93987 17.5944 5.37222 17.4023 4.8755C17.2021 4.36159 16.9352 3.92573 16.5006 3.49144C16.0661 3.0569 15.6315 2.78995 15.1172 2.59065C14.6191 2.39737 14.0511 2.26565 13.2194 2.22761C12.386 2.18972 12.1207 2.18042 9.99828 2.18042H10.0007ZM9.29984 3.58831C9.50789 3.588 9.74 3.58831 10.0007 3.58831C12.0867 3.58831 12.3339 3.59581 13.1577 3.63323C13.9194 3.66808 14.3328 3.79534 14.6082 3.90229C14.9728 4.04386 15.2327 4.21315 15.506 4.48667C15.7795 4.76011 15.9487 5.0205 16.0906 5.38511C16.1976 5.66011 16.325 6.07354 16.3597 6.83526C16.3971 7.65886 16.4052 7.9062 16.4052 9.9912C16.4052 12.0762 16.3971 12.3236 16.3597 13.1471C16.3248 13.9089 16.1976 14.3223 16.0906 14.5974C15.9491 14.962 15.7795 15.2216 15.506 15.4949C15.2326 15.7683 14.973 15.9375 14.6082 16.0792C14.3331 16.1866 13.9194 16.3135 13.1577 16.3484C12.3341 16.3858 12.0867 16.3939 10.0007 16.3939C7.91461 16.3939 7.66734 16.3858 6.84383 16.3484C6.08211 16.3132 5.66867 16.186 5.39305 16.079C5.02852 15.9374 4.76805 15.7682 4.49461 15.4947C4.22117 15.2213 4.05195 14.9615 3.91 14.5967C3.80305 14.3217 3.67562 13.9082 3.64094 13.1465C3.60352 12.3229 3.59602 12.0756 3.59602 9.98925C3.59602 7.90292 3.60352 7.6569 3.64094 6.83331C3.67578 6.07159 3.80305 5.65815 3.91 5.38276C4.05164 5.01815 4.22117 4.75776 4.49469 4.48433C4.7682 4.21089 5.02852 4.04159 5.39312 3.89972C5.66852 3.79229 6.08211 3.66534 6.84383 3.63034C7.56453 3.59776 7.84383 3.588 9.29984 3.58636V3.58831ZM14.171 4.8855C13.6534 4.8855 13.2335 5.30503 13.2335 5.82269C13.2335 6.34026 13.6534 6.76019 14.171 6.76019C14.6886 6.76019 15.1085 6.34026 15.1085 5.82269C15.1085 5.30511 14.6886 4.88519 14.171 4.88519V4.8855ZM10.0007 5.98089C7.78508 5.98089 5.98867 7.7773 5.98867 9.993C5.98867 12.2087 7.78508 14.0042 10.0007 14.0042C12.2164 14.0042 14.0122 12.2087 14.0122 9.993C14.0122 7.77737 12.2163 5.98089 10.0005 5.98089H10.0007ZM10.0007 7.38878C11.4389 7.38878 12.6049 8.55464 12.6049 9.993C12.6049 11.4312 11.4389 12.5972 10.0007 12.5972C8.5625 12.5972 7.39656 11.4312 7.39656 9.993C7.39656 8.55464 8.56242 7.38878 10.0007 7.38878Z" fill="white"/>
</g>
</g>
<defs>
<radialGradient id="paint0_radial_965_724" cx="0" cy="0" r="1" gradientUnits="userSpaceOnUse" gradientTransform="translate(5.3125 21.5333) rotate(-90) scale(19.8215 18.4355)">
<stop stop-color="#FFDD55"/>
<stop offset="0.1" stop-color="#FFDD55"/>
<stop offset="0.5" stop-color="#FF543E"/>
<stop offset="1" stop-color="#C837AB"/>
</radialGradient>
<radialGradient id="paint1_radial_965_724" cx="0" cy="0" r="1" gradientUnits="userSpaceOnUse" gradientTransform="translate(-3.35008 1.43362) rotate(78.681) scale(8.86031 36.5225)">
<stop stop-color="#3771C8"/>
<stop offset="0.128" stop-color="#3771C8"/>
<stop offset="1" stop-color="#6600FF" stop-opacity="0"/>
</radialGradient>
<clipPath id="clip0_965_724">
<rect width="20" height="20" fill="white" transform="translate(0 -0.00708008)"/>
</clipPath>
</defs>
</svg>
