<svg width="20" height="20" viewBox="0 0 20 20" fill="none" xmlns="http://www.w3.org/2000/svg">
<g id="skill-icons:linkedin" clip-path="url(#clip0_965_719)">
<g id="Group">
<path id="Vector" d="M15.3125 -0.00708008H4.6875C2.09867 -0.00708008 0 2.09159 0 4.68042V15.3054C0 17.8943 2.09867 19.9929 4.6875 19.9929H15.3125C17.9013 19.9929 20 17.8943 20 15.3054V4.68042C20 2.09159 17.9013 -0.00708008 15.3125 -0.00708008Z" fill="white"/>
<path id="Vector_2" d="M15.3125 -0.00708008H4.6875C2.09867 -0.00708008 0 2.09159 0 4.68042V15.3054C0 17.8943 2.09867 19.9929 4.6875 19.9929H15.3125C17.9013 19.9929 20 17.8943 20 15.3054V4.68042C20 2.09159 17.9013 -0.00708008 15.3125 -0.00708008Z" fill="#0A66C2"/>
<path id="Vector_3" d="M14.4309 16.9996H16.7176C16.8004 16.9996 16.8799 16.9666 16.9385 16.9081C16.9971 16.8495 17.0301 16.77 17.0301 16.6871L17.0312 11.8557C17.0312 9.3305 16.4871 7.38948 13.5361 7.38948C12.4143 7.34776 11.3564 7.92604 10.7855 8.89167C10.7828 8.89636 10.7785 8.90001 10.7734 8.90206C10.7684 8.90411 10.7628 8.90445 10.7575 8.90302C10.7523 8.90159 10.7476 8.89848 10.7443 8.89416C10.7409 8.88984 10.7391 8.88455 10.7391 8.87909V7.93511C10.7391 7.85223 10.7061 7.77274 10.6475 7.71414C10.5889 7.65553 10.5094 7.62261 10.4266 7.62261H8.25648C8.1736 7.62261 8.09412 7.65553 8.03551 7.71414C7.97691 7.77274 7.94398 7.85223 7.94398 7.93511V16.6867C7.94398 16.7695 7.97691 16.849 8.03551 16.9076C8.09412 16.9662 8.1736 16.9992 8.25648 16.9992H10.543C10.6259 16.9992 10.7054 16.9662 10.764 16.9076C10.8226 16.849 10.8555 16.7695 10.8555 16.6867V12.3607C10.8555 11.1375 11.0876 9.95284 12.6041 9.95284C14.099 9.95284 14.1184 11.3525 14.1184 12.4399V16.6871C14.1184 16.7699 14.1513 16.8494 14.2099 16.908C14.2685 16.9666 14.348 16.9996 14.4309 16.9996ZM2.96875 4.65136C2.96875 5.57823 3.7318 6.34089 4.65875 6.34089C5.58547 6.34081 6.34805 5.57769 6.34805 4.65097C6.34789 3.72425 5.58523 2.96167 4.65844 2.96167C3.73141 2.96167 2.96875 3.72448 2.96875 4.65136ZM3.51242 16.9996H5.80203C5.88491 16.9996 5.9644 16.9666 6.023 16.908C6.08161 16.8494 6.11453 16.7699 6.11453 16.6871V7.93511C6.11453 7.85223 6.08161 7.77274 6.023 7.71414C5.9644 7.65553 5.88491 7.62261 5.80203 7.62261H3.51242C3.42954 7.62261 3.35006 7.65553 3.29145 7.71414C3.23285 7.77274 3.19992 7.85223 3.19992 7.93511V16.6871C3.19992 16.7699 3.23285 16.8494 3.29145 16.908C3.35006 16.9666 3.42954 16.9996 3.51242 16.9996Z" fill="white"/>
</g>
</g>
<defs>
<clipPath id="clip0_965_719">
<rect width="20" height="20" fill="white" transform="translate(0 -0.00708008)"/>
</clipPath>
</defs>
</svg>
