<svg width="24" height="24" viewBox="0 0 24 24" fill="none" xmlns="http://www.w3.org/2000/svg">
<g id="MCQ icon component">
<path id="Vector" d="M5 14.5V13H6.5V14.5H5Z" fill="white"/>
<path id="Vector_2" fill-rule="evenodd" clip-rule="evenodd" d="M16 22H4C2.89543 22 2 21.1045 2 20V4C2 2.89543 2.89543 2 4 2H16C17.1045 2 18 2.89543 18 4V20C18 21.1045 17.1045 22 16 22ZM9 6.5C9 6.22385 9.22385 6 9.5 6H15.5C15.7761 6 16 6.22385 16 6.5C16 6.77615 15.7761 7 15.5 7H9.5C9.22385 7 9 6.77615 9 6.5ZM9.5 8C9.22385 8 9 8.22385 9 8.5C9 8.77615 9.22385 9 9.5 9H15.5C15.7761 9 16 8.77615 16 8.5C16 8.22385 15.7761 8 15.5 8H9.5ZM7.85355 6.14645C8.0488 6.3417 8.0488 6.6583 7.85355 6.85355L5.5 9.2071L4.14644 7.85355C3.95118 7.6583 3.95118 7.3417 4.14644 7.14645C4.34171 6.9512 4.65829 6.9512 4.85355 7.14645L5.5 7.7929L7.14645 6.14645C7.3417 5.9512 7.6583 5.9512 7.85355 6.14645ZM9.5 12C9.22385 12 9 12.2238 9 12.5C9 12.7761 9.22385 13 9.5 13H15.5C15.7761 13 16 12.7761 16 12.5C16 12.2238 15.7761 12 15.5 12H9.5ZM9 14.5C9 14.2238 9.22385 14 9.5 14H15.5C15.7761 14 16 14.2238 16 14.5C16 14.7761 15.7761 15 15.5 15H9.5C9.22385 15 9 14.7761 9 14.5ZM7 12H4.5C4.22386 12 4 12.2238 4 12.5V15C4 15.2761 4.22386 15.5 4.5 15.5H7C7.27615 15.5 7.5 15.2761 7.5 15V12.5C7.5 12.2238 7.27615 12 7 12Z" fill="white"/>
<path id="Vector_3" fill-rule="evenodd" clip-rule="evenodd" d="M22 20L20.5 22L19 20V11H22V20Z" fill="white"/>
<path id="Vector_4" fill-rule="evenodd" clip-rule="evenodd" d="M20 7.5H21C21.5523 7.5 22 7.9477 22 8.5V10.5H19V8.5C19 7.9477 19.4477 7.5 20 7.5Z" fill="white"/>
</g>
</svg>
