<svg width="150" height="23" viewBox="0 0 150 23" fill="none" xmlns="http://www.w3.org/2000/svg">
<g id="menu">
<g id="logo">
<g id="Group">
<g id="Group-3">
<path id="Path" d="M20.8747 0.16333C20.0342 0.16333 17.8763 0.300837 15.7185 1.49256C15.7185 1.49256 15.6503 1.56131 15.5822 1.56131C15.4459 1.63007 15.3323 1.69882 15.2642 1.76757C15.1279 1.90508 15.0143 1.97383 14.878 2.08842C14.8099 2.15717 14.7417 2.22593 14.6282 2.29468C14.4919 2.36343 14.3783 2.50094 14.242 2.61553C14.1739 2.61553 14.1739 2.68428 14.1057 2.68428C13.9013 2.82179 13.7877 3.00513 13.5833 3.14264L13.5151 3.21139C12.4021 4.33436 11.6298 5.73234 11.1074 7.24491C10.7894 8.23038 10.585 9.30751 10.585 10.4305V21.431V21.8894H10.9711C11.8115 21.8894 13.9694 21.7518 16.1273 20.5601C16.1273 20.5601 16.1955 20.4914 16.2636 20.4914C16.3999 20.4226 16.5135 20.3539 16.5816 20.2851C16.7179 20.2164 16.8315 20.0789 16.9678 20.0101C17.0359 19.9413 17.104 19.8726 17.2176 19.8038C17.3312 19.7351 17.4675 19.5976 17.6038 19.483C17.6719 19.483 17.6719 19.4142 17.7401 19.4142C17.9445 19.2767 18.0581 19.0934 18.2625 18.9559L18.3306 18.8871C19.4436 17.7642 20.2159 16.3662 20.7384 14.8536C21.0564 13.8681 21.2608 12.791 21.2608 11.668V0.16333H20.8747Z" fill="#39C33A"/>
<path id="Path_1_" d="M21.7377 0.16333C22.5781 0.16333 24.736 0.300837 26.8939 1.49256C26.8939 1.49256 26.9621 1.56131 27.0302 1.56131C27.1665 1.63007 27.2801 1.69882 27.3482 1.76757C27.4845 1.83633 27.5981 1.97383 27.7344 2.04259C27.8025 2.11134 27.8706 2.18009 27.9842 2.24885C28.1205 2.3176 28.2341 2.4551 28.3704 2.56969C28.4385 2.56969 28.4385 2.63845 28.5067 2.63845C28.7111 2.77595 28.8247 2.9593 29.0291 3.0968L29.0972 3.16556C30.2102 4.28852 30.9825 5.68651 31.505 7.19908C31.823 8.18454 32.0274 9.26167 32.0274 10.3846V21.3852V21.8435H31.6413C30.8008 21.8435 28.6429 21.706 26.4851 20.5143C26.4851 20.5143 26.4169 20.4455 26.3488 20.4455C26.2125 20.3768 26.0989 20.308 26.0308 20.2393C25.8945 20.1705 25.7809 20.033 25.6446 19.9643C25.5765 19.8955 25.5083 19.8268 25.3948 19.758C25.2585 19.6892 25.1449 19.5517 25.0086 19.4372C24.9405 19.4372 24.9405 19.3684 24.8723 19.3684C24.6679 19.2309 24.5543 19.0476 24.3499 18.91L24.2817 18.8413C23.1687 17.7183 22.3964 16.3203 21.874 14.8078C21.556 13.8223 21.3516 12.7452 21.3516 11.6222V0.16333H21.7377Z" fill="#ADE83A"/>
<path id="Path_2_" d="M10.2443 21.9123C9.40383 21.9123 7.24595 21.7748 5.08806 20.583C5.08806 20.583 5.01992 20.5143 4.95178 20.5143C4.81549 20.4455 4.70192 20.3768 4.63377 20.308C4.49749 20.2393 4.38391 20.1018 4.24763 20.033C4.17948 19.9643 4.11134 19.8955 3.99777 19.8268C3.86148 19.758 3.7479 19.6205 3.61162 19.5059C3.54347 19.5059 3.54347 19.4372 3.47533 19.4372C3.2709 19.2997 3.15733 19.1163 2.95289 18.9788L2.88475 18.91C1.77174 17.7871 0.976727 16.412 0.454291 14.8765C0.204431 13.8223 0 12.7452 0 11.6222V0.621685V0.16333H0.386148C1.22659 0.16333 3.38447 0.300837 5.54236 1.49256C5.54236 1.49256 5.6105 1.56131 5.67864 1.56131C5.81493 1.63007 5.9285 1.69882 5.99665 1.76757C6.13294 1.81341 6.26922 1.95091 6.40551 2.01967C6.47365 2.08842 6.5418 2.15717 6.65537 2.22593C6.79166 2.29468 6.90523 2.43219 7.04152 2.54678C7.10966 2.54678 7.10966 2.61553 7.17781 2.61553C7.38224 2.75304 7.49581 2.93638 7.70024 3.07388L7.76838 3.14264C8.8814 4.26561 9.65369 5.66359 10.1761 7.17616C10.4941 8.16162 10.6986 9.23876 10.6986 10.3617V21.8206L10.2443 21.9123Z" fill="#52D6FF"/>
</g>
</g>
<g id="Group_1_">
<path id="Shape" d="M59.9458 0.101562H58.8328V11.973C58.8328 17.1524 57.3337 19.3296 53.2905 19.3296C49.3154 19.3296 47.5437 17.0836 47.5437 11.6979V2.41625C47.5437 0.697424 47.0212 0.170316 45.6584 0.170316H44.6816V12.0188C44.6816 18.3899 47.4982 22.1026 53.1087 22.1026C58.7192 22.1026 61.7176 18.3212 61.7176 11.7667V2.23291C61.6949 0.83493 61.127 0.101562 59.9458 0.101562ZM73.1884 4.4101C68.8727 4.4101 66.0788 7.18315 66.0788 11.973V19.7192C66.0788 21.0484 66.8056 21.713 67.8505 21.713H68.8954V12.0188C68.8954 8.58113 70.3264 7.11439 72.8023 7.11439C75.7325 7.11439 77.0499 8.51237 77.0499 12.0188V19.8337C77.0499 21.0942 77.7086 21.6901 78.8216 21.6901H79.8665V11.9042C79.9119 6.8623 77.3679 4.4101 73.1884 4.4101ZM90.2244 4.4101C86.4992 4.4101 84.4776 6.4727 84.4776 7.98527V9.38325H84.6139C85.5906 7.98527 87.4305 7.06856 89.9064 7.06856C92.6548 7.06856 93.8133 8.05402 93.8133 10.575V11.3771H91.5872C86.5673 11.3771 83.8189 13.3709 83.8189 17.0149C83.8189 19.9942 86.749 22.0568 90.2244 22.0568C94.9263 22.0338 96.7435 19.5816 96.7435 16.144V10.8271C96.6753 6.65604 94.472 4.4101 90.2244 4.4101ZM93.8814 15.869C93.8814 18.3212 92.8365 19.3066 90.2925 19.3066C88.1346 19.3066 86.7036 18.1149 86.7036 16.6482C86.7036 14.7918 88.2028 13.7376 91.5872 13.7376H93.8814V15.869ZM108.101 4.4101C103.785 4.4101 100.991 7.18315 100.991 11.973V19.7192C100.991 21.0484 101.718 21.713 102.763 21.713H103.808V12.0188C103.808 8.58113 105.239 7.11439 107.715 7.11439C110.645 7.11439 111.962 8.51237 111.962 12.0188V19.8337C111.962 21.0942 112.621 21.6901 113.734 21.6901H114.779V11.9042C114.824 6.8623 112.28 4.4101 108.101 4.4101ZM132.837 10.3C132.837 6.93105 129.77 4.4101 126.5 4.4101C122.07 4.4101 118.663 8.05402 118.663 13.5543C118.663 18.4587 121.934 22.0338 126.5 22.0338C130.225 22.0338 132.11 20.6359 132.11 18.917V17.6566H131.974C131.065 18.5733 129.498 19.3754 126.886 19.3754C123.751 19.3754 121.798 17.3815 121.525 14.5397H125.636C131.474 14.471 132.837 13.2793 132.837 10.3ZM121.548 12.2251V11.4917C121.616 9.3145 123.365 6.97689 126.113 6.97689C128.726 6.97689 129.975 8.55821 129.975 10.4145C129.975 11.675 129.248 12.0646 125.273 12.1334L121.548 12.2251ZM143.399 7.45816C144.898 7.45816 145.625 6.72479 145.625 5.73933V4.75386H139.878V1.22453H139.56C139.174 1.22453 138.198 1.82039 137.789 2.41625C137.334 3.14962 137.062 4.06633 137.062 5.07471V16.144C137.062 20.0629 138.697 22.0338 142.422 22.0338C144.376 22.0338 145.421 21.3005 145.421 19.8567V18.8712H145.285C144.694 19.2608 143.717 19.3296 142.672 19.3296C140.855 19.3296 139.924 18.3441 139.924 15.8919V7.45816H143.399Z" fill="#10365A"/>
<g id="Path_3_">
<path id="Vector" d="M147.524 19.3845H147.07V19.1782H148.183V19.3845H147.706V20.7825H147.524V19.3845Z" fill="#10365A"/>
<path id="Vector_2" d="M148.433 19.2471H148.682L149.205 20.4388L149.727 19.2471H150V20.7826H149.795V19.5221L149.273 20.7826H149.205L148.682 19.5221V20.7826H148.501V19.2471H148.433Z" fill="#10365A"/>
</g>
</g>
</g>
</g>
</svg>
