<svg width="24" height="24" viewBox="0 0 24 24" fill="none" xmlns="http://www.w3.org/2000/svg">
<g id="setting icon component">
<path id="Vector" d="M19.1405 12.9399C19.1805 12.6399 19.2005 12.3299 19.2005 11.9999C19.2005 11.6799 19.1805 11.3599 19.1305 11.0599L21.1605 9.4799C21.2479 9.4078 21.3077 9.3076 21.3296 9.19637C21.3515 9.08514 21.3341 8.96977 21.2805 8.8699L19.3605 5.54991C19.3036 5.44976 19.2134 5.37282 19.1055 5.33259C18.9976 5.29236 18.879 5.29141 18.7705 5.32991L16.3805 6.28991C15.8805 5.9099 15.3505 5.58991 14.7605 5.34991L14.4005 2.80991C14.3827 2.69544 14.3246 2.59111 14.2365 2.51588C14.1484 2.44065 14.0363 2.3995 13.9205 2.39991H10.0805C9.84045 2.39991 9.65045 2.56991 9.61045 2.80991L9.25045 5.34991C8.66045 5.58991 8.12045 5.91991 7.63045 6.28991L5.24045 5.32991C5.02045 5.24991 4.77045 5.32991 4.65045 5.54991L2.74045 8.8699C2.62045 9.07991 2.66045 9.3399 2.86045 9.4799L4.89045 11.0599C4.84045 11.3599 4.80045 11.6899 4.80045 11.9999C4.80045 12.3099 4.82045 12.6399 4.87045 12.9399L2.84045 14.5199C2.75298 14.592 2.69321 14.6922 2.67132 14.8034C2.64944 14.9147 2.66681 15.03 2.72045 15.1299L4.64045 18.4499C4.76045 18.6699 5.01045 18.7399 5.23045 18.6699L7.62045 17.7099C8.12045 18.0899 8.65045 18.4099 9.24045 18.6499L9.60045 21.1899C9.65045 21.4299 9.84045 21.5999 10.0805 21.5999H13.9205C14.1605 21.5999 14.3605 21.4299 14.3905 21.1899L14.7505 18.6499C15.3405 18.4099 15.8805 18.0899 16.3705 17.7099L18.7605 18.6699C18.9805 18.7499 19.2305 18.6699 19.3505 18.4499L21.2705 15.1299C21.3905 14.9099 21.3405 14.6599 21.1505 14.5199L19.1405 12.9399ZM12.0005 15.5999C10.0205 15.5999 8.40045 13.9799 8.40045 11.9999C8.40045 10.0199 10.0205 8.3999 12.0005 8.3999C13.9805 8.3999 15.6005 10.0199 15.6005 11.9999C15.6005 13.9799 13.9805 15.5999 12.0005 15.5999Z" fill="white"/>
</g>
</svg>
