<svg width="105" height="100" viewBox="0 0 105 100" fill="none" xmlns="http://www.w3.org/2000/svg">
<g id="Group">
<path id="Vector" d="M35.8211 25.332L40.0751 26.817L35.8211 28.301L33.8681 33.843L31.9151 28.301L27.6611 26.817L31.9151 25.332L33.8681 19.79L35.8211 25.332Z" fill="#ECE4BA"/>
<path id="Vector_2" d="M89.2581 31.1269L92.5671 32.2819L89.2581 33.4369L87.7391 37.7469L86.2201 33.4369L82.9121 32.2819L86.2201 31.1269L87.7391 26.8169L89.2581 31.1269Z" fill="#ECE4BA"/>
<path id="Vector_3" d="M59.9851 13.4258L70.1531 15.6908L59.9851 17.9558L56.7051 30.9148L53.4251 17.9558L43.2571 15.6908L53.4251 13.4258L56.7051 0.466797L59.9851 13.4258Z" fill="#ECE4BA"/>
<path id="Vector_4" d="M94.3111 56.8359L105 59.2169L94.3111 61.5989L90.8621 75.2219L87.4141 61.5989L76.7241 59.2169L87.4141 56.8359L90.8621 43.2119L94.3111 56.8359Z" fill="#ECE4BA"/>
<path id="Vector_5" d="M52.9142 63.3068L71.9422 66.2438L52.9142 69.1798L49.8732 91.2268L46.8332 69.1798L27.8052 66.2438L46.8332 63.3068L49.8732 41.2598L52.9142 63.3068Z" fill="#ECE4BA"/>
<path id="Vector_6" d="M62.735 92.8349L67.492 93.5699L62.735 94.3039L61.975 99.4249L61.215 94.3039L56.458 93.5699L61.215 92.8349L61.975 87.7139L62.735 92.8349Z" fill="#ECE4BA"/>
<path id="Vector_7" d="M81.641 69.599L83.862 69.942L81.641 70.284L81.286 72.676L80.931 70.284L78.709 69.942L80.931 69.599L81.286 67.207L81.641 69.599Z" fill="#ECE4BA"/>
<path id="Vector_8" d="M59.7801 52.4228L62.0011 52.7648L59.7801 53.1078L59.4251 55.4998L59.0701 53.1078L56.8491 52.7648L59.0701 52.4228L59.4251 50.0308L59.7801 52.4228Z" fill="#ECE4BA"/>
<path id="Vector_9" d="M36.358 49.2997L38.579 49.6427L36.358 49.9847L36.003 52.3767L35.648 49.9847L33.427 49.6427L35.648 49.2997L36.003 46.9077L36.358 49.2997Z" fill="#ECE4BA"/>
<path id="Vector_10" d="M11.3741 64.1337L13.5961 64.4767L11.3741 64.8187L11.0191 67.2107L10.6651 64.8187L8.44312 64.4767L10.6651 64.1337L11.0191 61.7417L11.3741 64.1337Z" fill="#ECE4BA"/>
<path id="Vector_11" d="M36.358 71.9408L38.579 72.2838L36.358 72.6268L36.003 75.0178L35.648 72.6268L33.427 72.2838L35.648 71.9408L36.003 69.5488L36.358 71.9408Z" fill="#ECE4BA"/>
<path id="Vector_12" d="M68.2001 38.184L72.9571 38.918L68.2001 39.652L67.4401 44.774L66.6801 39.652L61.9231 38.918L66.6801 38.184L67.4401 33.063L68.2001 38.184Z" fill="#ECE4BA"/>
<path id="Vector_13" d="M24.4791 81.9047L29.2362 82.6387L24.4791 83.3727L23.7192 88.4947L22.9591 83.3727L18.2021 82.6387L22.9591 81.9047L23.7192 76.7837L24.4791 81.9047Z" fill="#ECE4BA"/>
<path id="Vector_14" d="M15.4521 43.2809L26.6471 44.9689L15.4521 46.6569L13.7641 57.8509L12.0761 46.6569L0.88208 44.9689L12.0761 43.2809L13.7641 32.0869L15.4521 43.2809Z" fill="#ECE4BA"/>
</g>
</svg>
