<svg width="21" height="20" viewBox="0 0 21 20" fill="none" xmlns="http://www.w3.org/2000/svg">
<g id="&#240;&#159;&#148;&#141;-Product-Icons">
<g id="ic_fluent_team_add_24_filled">
<path id="&#240;&#159;&#142;&#168;-Color" d="M15.5 9C18.5376 9 21 11.4624 21 14.5C21 17.5376 18.5376 20 15.5 20C12.4624 20 10 17.5376 10 14.5C10 11.4624 12.4624 9 15.5 9ZM15.5 10.9992L15.4101 11.0073C15.206 11.0443 15.0451 11.2053 15.0081 11.4094L15 11.4992L14.9996 13.9992L12.4977 14L12.4078 14.0081C12.2037 14.0451 12.0427 14.206 12.0057 14.4101L11.9977 14.5L12.0057 14.5899C12.0427 14.794 12.2037 14.9549 12.4078 14.9919L12.4977 15L15.0007 14.9992L15.0011 17.5035L15.0092 17.5934C15.0462 17.7975 15.2071 17.9584 15.4112 17.9954L15.5011 18.0035L15.591 17.9954C15.7951 17.9584 15.956 17.7975 15.9931 17.5934L16.0011 17.5035L16.0007 14.9992L18.5046 15L18.5944 14.9919C18.7985 14.9549 18.9595 14.794 18.9965 14.5899L19.0046 14.5L18.9965 14.4101C18.9595 14.206 18.7985 14.0451 18.5944 14.0081L18.5046 14L15.9996 13.9992L16 11.4992L15.9919 11.4094C15.9549 11.2053 15.794 11.0443 15.5899 11.0073L15.5 10.9992ZM12.254 7C13.0886 7 13.817 7.45435 14.2054 8.12918C11.2353 8.72966 9 11.3538 9 14.5C9 15.7892 9.3753 16.9907 10.0226 18.0012L10.003 18C7.51712 18 5.50193 15.9848 5.50193 13.499V9.25C5.50193 8.00736 6.50929 7 7.75193 7H12.254ZM5.40645 7.00027C4.89291 7.53553 4.56081 8.24622 4.50903 9.03347L4.50193 9.25V13.499C4.50193 14.3456 4.69319 15.1476 5.03487 15.864C4.70577 15.9531 4.35899 16 4.00124 16C1.79142 16 0 14.2086 0 11.9988V9.25C0 8.05914 0.925161 7.08436 2.09595 7.00519L2.25 7L5.40645 7.00027ZM17.75 7C18.9926 7 20 8.00736 20 9.25L20.0008 9.81036C18.8328 8.68913 17.2469 8 15.5 8L15.2568 8.00447C15.1013 7.62964 14.8769 7.28937 14.5995 7.00027L17.75 7ZM16.5 1C17.8807 1 19 2.11929 19 3.5C19 4.88071 17.8807 6 16.5 6C15.1193 6 14 4.88071 14 3.5C14 2.11929 15.1193 1 16.5 1ZM10 0C11.6569 0 13 1.34315 13 3C13 4.65685 11.6569 6 10 6C8.34315 6 7 4.65685 7 3C7 1.34315 8.34315 0 10 0ZM3.5 1C4.88071 1 6 2.11929 6 3.5C6 4.88071 4.88071 6 3.5 6C2.11929 6 1 4.88071 1 3.5C1 2.11929 2.11929 1 3.5 1Z" fill="white"/>
</g>
</g>
</svg>
