<svg width="20" height="20" viewBox="0 0 20 20" fill="none" xmlns="http://www.w3.org/2000/svg">
<g id="skill-icons:twitter" clip-path="url(#clip0_965_714)">
<g id="Group">
<path id="Vector" d="M15.3125 -0.00708008H4.6875C2.09867 -0.00708008 0 2.09159 0 4.68042V15.3054C0 17.8943 2.09867 19.9929 4.6875 19.9929H15.3125C17.9013 19.9929 20 17.8943 20 15.3054V4.68042C20 2.09159 17.9013 -0.00708008 15.3125 -0.00708008Z" fill="white"/>
<path id="Vector_2" d="M15.3125 -0.00708008H4.6875C2.09867 -0.00708008 0 2.09159 0 4.68042V15.3054C0 17.8943 2.09867 19.9929 4.6875 19.9929H15.3125C17.9013 19.9929 20 17.8943 20 15.3054V4.68042C20 2.09159 17.9013 -0.00708008 15.3125 -0.00708008Z" fill="#1D9BF0"/>
<path id="Vector_3" d="M15.5916 7.1344C15.6002 7.25839 15.6002 7.38237 15.6002 7.50753C15.6002 11.3198 12.698 15.7165 7.39117 15.7165V15.7142C5.82345 15.7164 4.28821 15.2674 2.96875 14.4208C3.19682 14.4482 3.42573 14.462 3.65547 14.4624C4.95485 14.4635 6.21685 14.0277 7.23867 13.225C6.63664 13.2136 6.05321 13.0144 5.56995 12.6552C5.08669 12.2959 4.72774 11.7947 4.54328 11.2215C4.97553 11.3049 5.42114 11.2879 5.84578 11.1718C4.49984 10.8999 3.53148 9.71729 3.53148 8.34385V8.30729C3.93272 8.53079 4.38178 8.65463 4.84086 8.66839C3.5732 7.82112 3.18242 6.13464 3.94789 4.81604C4.67216 5.70742 5.57587 6.43644 6.6003 6.95574C7.62473 7.47505 8.74696 7.773 9.89406 7.83026C9.77969 7.33795 9.79659 6.82423 9.94305 6.3405C10.0895 5.85676 10.3604 5.41996 10.7287 5.07378C11.8907 3.98143 13.7183 4.03745 14.8106 5.19885C15.4567 5.0713 16.0763 4.83444 16.6427 4.49846C16.4274 5.16649 15.9766 5.73352 15.3745 6.09409C15.9464 6.02664 16.5049 5.87355 17.0312 5.63995C16.6441 6.21981 16.1566 6.72585 15.5916 7.1344Z" fill="white"/>
</g>
</g>
<defs>
<clipPath id="clip0_965_714">
<rect width="20" height="20" fill="white" transform="translate(0 -0.00708008)"/>
</clipPath>
</defs>
</svg>
