<svg width="21" height="20" viewBox="0 0 21 20" fill="none" xmlns="http://www.w3.org/2000/svg">
<g id="prime:upload">
<path id="Vector" d="M15.683 17.2918H5.31638C5.02739 17.28 4.74356 17.2113 4.48113 17.0897C4.21871 16.9681 3.98283 16.796 3.78701 16.5831C3.59118 16.3703 3.43925 16.1209 3.3399 15.8493C3.24056 15.5776 3.19575 15.2891 3.20804 15.0001V12.5001C3.20804 12.3343 3.27389 12.1754 3.3911 12.0582C3.50831 11.9409 3.66728 11.8751 3.83304 11.8751C3.9988 11.8751 4.15777 11.9409 4.27498 12.0582C4.39219 12.1754 4.45804 12.3343 4.45804 12.5001V15.0001C4.43653 15.2475 4.51108 15.4938 4.66624 15.6877C4.82139 15.8817 5.04525 16.0084 5.29138 16.0418H15.683C15.9292 16.0084 16.153 15.8817 16.3082 15.6877C16.4633 15.4938 16.5379 15.2475 16.5164 15.0001V12.5001C16.5164 12.3343 16.5822 12.1754 16.6994 12.0582C16.8166 11.9409 16.9756 11.8751 17.1414 11.8751C17.3071 11.8751 17.4661 11.9409 17.5833 12.0582C17.7005 12.1754 17.7664 12.3343 17.7664 12.5001V15.0001C17.7913 15.5796 17.5864 16.1455 17.1963 16.5746C16.8061 17.0038 16.2623 17.2615 15.683 17.2918ZM13.833 7.29177C13.7509 7.29216 13.6696 7.27614 13.5937 7.24466C13.5179 7.21317 13.4491 7.16686 13.3914 7.10843L10.4997 4.21677L7.60804 7.10843C7.48956 7.21883 7.33286 7.27894 7.17094 7.27608C7.00902 7.27322 6.85454 7.20763 6.74002 7.09312C6.62551 6.97861 6.55992 6.82412 6.55706 6.6622C6.55421 6.50029 6.61431 6.34358 6.72471 6.2251L10.058 2.89177C10.1752 2.77473 10.3341 2.70898 10.4997 2.70898C10.6653 2.70898 10.8242 2.77473 10.9414 2.89177L14.2747 6.2251C14.3918 6.34229 14.4575 6.50114 14.4575 6.66677C14.4575 6.83239 14.3918 6.99125 14.2747 7.10843C14.217 7.16686 14.1482 7.21317 14.0724 7.24466C13.9965 7.27614 13.9152 7.29216 13.833 7.29177Z" fill="black"/>
<path id="Vector_2" d="M10.5 13.1252C10.3349 13.123 10.1772 13.0565 10.0604 12.9397C9.9437 12.823 9.87716 12.6653 9.875 12.5002V3.3335C9.875 3.16774 9.94085 3.00876 10.0581 2.89155C10.1753 2.77434 10.3342 2.7085 10.5 2.7085C10.6658 2.7085 10.8247 2.77434 10.9419 2.89155C11.0592 3.00876 11.125 3.16774 11.125 3.3335V12.5002C11.1228 12.6653 11.0563 12.823 10.9396 12.9397C10.8228 13.0565 10.6651 13.123 10.5 13.1252Z" fill="black"/>
</g>
</svg>
