<svg width="40" height="40" viewBox="0 0 40 40" fill="none" xmlns="http://www.w3.org/2000/svg">
<g id="User">
<path id="Vector" d="M19.9993 6.6665C21.7675 6.6665 23.4632 7.36888 24.7134 8.61913C25.9636 9.86937 26.666 11.5651 26.666 13.3332C26.666 15.1013 25.9636 16.797 24.7134 18.0472C23.4632 19.2975 21.7675 19.9998 19.9993 19.9998C18.2312 19.9998 16.5355 19.2975 15.2853 18.0472C14.0351 16.797 13.3327 15.1013 13.3327 13.3332C13.3327 11.5651 14.0351 9.86937 15.2853 8.61913C16.5355 7.36888 18.2312 6.6665 19.9993 6.6665ZM19.9993 23.3332C27.366 23.3332 33.3327 26.3165 33.3327 29.9998V33.3332H6.66602V29.9998C6.66602 26.3165 12.6327 23.3332 19.9993 23.3332Z" fill="white"/>
</g>
</svg>
